<svg xmlns="http://www.w3.org/2000/svg" viewBox="0 0 249.05 271.19"><defs><style>.cls-1{isolation:isolate;}.cls-2{fill:#f3f3f3;}.cls-3{fill:#ba7359;}.cls-12,.cls-22,.cls-27,.cls-28,.cls-30,.cls-31,.cls-37,.cls-39,.cls-4,.cls-49,.cls-7{fill:#e0aedb;}.cls-4{opacity:0.24;}.cls-12,.cls-22,.cls-27,.cls-28,.cls-30,.cls-31,.cls-37,.cls-38,.cls-4,.cls-49,.cls-7{mix-blend-mode:multiply;}.cls-5{fill:#e3d8cf;}.cls-6{fill:#a85e43;}.cls-7{opacity:0.55;}.cls-8{fill:#ebc659;}.cls-9{fill:#b3694f;}.cls-10{fill:#fcd660;}.cls-11{fill:#fc6397;}.cls-12{opacity:0.57;}.cls-13{fill:#f75755;}.cls-14{fill:#ff9e6a;}.cls-15{fill:#f5d556;}.cls-16{fill:#0fae86;}.cls-17{fill:#04a1f0;}.cls-18{fill:#bd73bf;}.cls-19{fill:#2e1c16;}.cls-20{fill:#542519;}.cls-21{fill:#57dadd;}.cls-22{opacity:0.42;}.cls-23{fill:#fc9f77;}.cls-24{fill:#e04c7e;}.cls-25{fill:#f2e8e0;}.cls-26{opacity:0.52;}.cls-27{opacity:0.2;}.cls-28{opacity:0.28;}.cls-29{fill:#fcaf8d;}.cls-30{opacity:0.15;}.cls-31{opacity:0.48;}.cls-32{fill:#c16e4d;}.cls-33{fill:#54bfc7;}.cls-34{fill:#f76b6e;}.cls-35{fill:#f2f0ed;}.cls-36{fill:#cf8063;}.cls-37{opacity:0.4;}.cls-38{opacity:0.11;}.cls-40{fill:#fc59da;}.cls-41{fill:#093c54;}.cls-42{fill:#0f638a;}.cls-43{fill:#0c4d6c;}.cls-44{fill:#38708a;}.cls-45{fill:#72362a;}.cls-46{fill:#904e30;}.cls-47{fill:#97d1de;}.cls-48{fill:#edc25c;}.cls-49{opacity:0.35;}.cls-50{fill:#fca7c3;}.cls-51{fill:#a0573d;}.cls-52{fill:#a6e0ed;}</style></defs><title>Asset 1</title><g class="cls-1"><g id="Layer_2" data-name="Layer 2"><g id="OBJECTS"><ellipse class="cls-2" cx="124.52" cy="253.25" rx="124.52" ry="17.94"/><path class="cls-3" d="M127.49,84.61A8.79,8.79,0,0,0,120.05,86a31.12,31.12,0,0,0-5.69,5.37c-2.06,2.21-4.24,4.32-6.5,6.31a87.63,87.63,0,0,1-35.82,19,4.77,4.77,0,0,1-1.61-.66,9.13,9.13,0,0,0-6.47-.72.74.74,0,0,0-.48.28c-.16.25,0,.6.29.75a2.12,2.12,0,0,0,.88.16,4.48,4.48,0,0,1,2.6,1.13c-1.91.48-3.74,0-5.55-.1-.33,0-.71,0-.87.31a.64.64,0,0,0,.12.76,2,2,0,0,0,.73.41A16.93,16.93,0,0,0,66,120c-2.23.59-4.26,1-6.29,1.47a1,1,0,0,0-.64.33.66.66,0,0,0,.36.89,1.9,1.9,0,0,0,1.06,0c-.47.13-1.07.4-1,.92s.62.68,1.1.76a16,16,0,0,0,5.53-.14,12.74,12.74,0,0,1-3.72,1.57c-.39.09-.88.27-.9.68s.69.65,1.2.61a33.56,33.56,0,0,0,10.54-2.79,97.91,97.91,0,0,0,36.69-9.74c1.61-.79,3.2-1.62,4.74-2.54a40.68,40.68,0,0,0,8.42-6.3,24.49,24.49,0,0,0,7.35-13.81C130.76,89.33,130.32,86.25,127.49,84.61ZM67.14,119.68l0,0s0,0,0,0Z" transform="translate(0 0.1)"/><path class="cls-4" d="M123.06,105.75a41.36,41.36,0,0,1-8.42,6.31,28.34,28.34,0,0,1-5.54-9.61,33.41,33.41,0,0,1-1.25-4.79,84.38,84.38,0,0,0,6.5-6.33A32.08,32.08,0,0,1,120,86c2.18-1.42,5-2.21,7.44-1.36,2.85,1.63,3.28,4.72,2.93,7.33A24.47,24.47,0,0,1,123.06,105.75Z" transform="translate(0 0.1)"/><path class="cls-5" d="M121.61,113.74c6-6,11.85-12.61,14.86-20.48a17.24,17.24,0,0,0,1.36-7.12,7,7,0,0,0-3-5.7c-2.8-1.66-6.66-.46-9.9,1.17-6.53,3.27-12.47,8.13-19.16,11C107.92,101.75,113.52,109.51,121.61,113.74Z" transform="translate(0 0.1)"/><path class="cls-6" d="M48,239.06v0c0,1.44,6,4.61,9.13,6.49l.88.54c.47.31.87.58,1.21.85,2.12,1.63,1.83,2.69,1.45,4.35-5.71.43-16.89-.4-22-2.53-.71-1.82,0-4.17.51-6.1A13,13,0,0,1,40,241a3.59,3.59,0,0,0,.43-1.36c0-6.33-2.59-13.21-3.75-18.1a49,49,0,0,1-1.89-12.34,20.62,20.62,0,0,1,.84-5.47A10.07,10.07,0,0,1,39,198.56a82.21,82.21,0,0,0-3.19-9.46c-.19-.5-.39-1-.57-1.5a57.66,57.66,0,0,1-2.5-7.85c-1.45-6.39-2-13.32,0-19.5,6.92-21.32,23.44-14.92,27.9-2.08A33.74,33.74,0,0,1,62,168.61,161.27,161.27,0,0,1,61.14,186c-.09.84-.19,1.66-.31,2.49a102.14,102.14,0,0,1-4.61,18c-.39,1.18-.79,2.36-1.19,3.54C51.83,219.35,48.51,228.75,48,239.06Z" transform="translate(0 0.1)"/><path class="cls-7" d="M62,168.61A161.27,161.27,0,0,1,61.14,186c-.09.84-.19,1.66-.31,2.49-3.07.76-14.23,3.46-25.07.66-.19-.5-.39-1-.57-1.5a57.66,57.66,0,0,1-2.5-7.85c-1.45-6.39-2-13.32,0-19.5,6.92-21.32,23.44-14.92,27.9-2.08A33.74,33.74,0,0,1,62,168.61Z" transform="translate(0 0.1)"/><path class="cls-8" d="M60.63,251.33c-5.72.43-16.89-.4-22-2.53-.71-1.82,0-4.17.51-6.1A13,13,0,0,1,40,241a3.59,3.59,0,0,0,.43-1.36c0-6.33-2.59-13.21-3.76-18.1-1-4-1.95-8.14-1.87-12.34a19.84,19.84,0,0,1,.83-5.47c5-.45,16.83.27,23,3.8-3.2,9.37-7.05,21.19-10.57,31.53-.51,1.48,7.22,5.31,10,7.07.47.31.87.58,1.21.85C61.3,248.61,61,249.67,60.63,251.33Z" transform="translate(0 0.1)"/><path class="cls-9" d="M66,241.75v0c.1,1.44,6.27,4.17,9.58,5.81.34.19.65.34.91.48.49.27.91.52,1.27.76,2.23,1.48,2,2.55,1.75,4.24-5.66.83-16.87.81-22.11-1-.84-1.76-.32-4.15.07-6.12a13.33,13.33,0,0,1,.68-1.75,3.54,3.54,0,0,0,.32-1.38c-.45-6.32-3.53-13-5-17.78a49,49,0,0,1-2.77-12.18,20.25,20.25,0,0,1,.44-5.52,10,10,0,0,1,3-5.39,80.65,80.65,0,0,0-3.87-9.21l-.67-1.45a57.68,57.68,0,0,1-3.06-7.66c-1.91-6.27-2.94-13.14-1.39-19.45,5.37-21.75,22.3-16.57,27.68-4.08a33.7,33.7,0,0,1,2.12,10.32,158.42,158.42,0,0,1,.41,17.35c0,.84-.06,1.67-.12,2.5a102.78,102.78,0,0,1-3.31,18.28c-.3,1.21-.62,2.41-.93,3.62C68.4,221.81,65.77,231.43,66,241.75Z" transform="translate(0 0.1)"/><path class="cls-7" d="M74.87,170.48a158.42,158.42,0,0,1,.41,17.35c0,.84-.06,1.67-.12,2.5-3,1-14,4.48-25,2.47l-.67-1.45a57.68,57.68,0,0,1-3.06-7.66c-1.91-6.27-2.94-13.14-1.39-19.45,5.37-21.75,22.3-16.57,27.68-4.08A33.7,33.7,0,0,1,74.87,170.48Z" transform="translate(0 0.1)"/><path class="cls-10" d="M79.49,253.08c-5.67.83-16.88.81-22.12-1-.83-1.76-.32-4.15.07-6.12a13.33,13.33,0,0,1,.68-1.75,3.57,3.57,0,0,0,.33-1.38c-.46-6.32-3.54-13-5.06-17.78-1.26-4-2.53-8-2.76-12.18a20.25,20.25,0,0,1,.44-5.52c5-.81,16.81-.94,23.17,2.14-2.52,9.58-5.5,21.64-8.28,32.21-.39,1.52,7.59,4.78,10.5,6.33.49.27.91.52,1.27.76C80,250.32,79.74,251.39,79.49,253.08Z" transform="translate(0 0.1)"/><path class="cls-11" d="M26.84,86.27a6.74,6.74,0,0,0-2.31,5.21,9,9,0,0,0,1.09,3.44.35.35,0,0,0,.06.16,10,10,0,0,1,1.06,2.5c.07.42.15.82.2,1.23a16.18,16.18,0,0,1-.33,5.92,6.86,6.86,0,0,1-1.86,2.58c-1.69,1.48-3.82,2.38-5.34,4A10.11,10.11,0,0,0,17,118.43a14.06,14.06,0,0,0,1,3.77,1.19,1.19,0,0,0,.08.2,13.3,13.3,0,0,0,.29,3.41c10.14,3.7,21.19,3.56,32,2.85l3.09-.21c12-.88,24.2-2.09,34.76-7.26.12-.46.23-.93.33-1.39a29.22,29.22,0,0,0,.62-4.66c.22-.48.4-1,.57-1.44a14.93,14.93,0,0,0,.88-6.69,10.39,10.39,0,0,0-2.35-6C86.39,99,83.79,98,81.32,96.88A19.91,19.91,0,0,1,77,94.42a35.45,35.45,0,0,1-3.52-3.31.42.42,0,0,0-.22-.11,5.08,5.08,0,0,1-.92-4.21C74.19,79.43,72.07,76,68.66,73c-3.81-3.47-.78-8.38-5.26-14.45a13.18,13.18,0,0,0-13.58-4.66c-4.63,0-9.47,2-11.87,5.94C34.51,65.44,36.84,73.15,33.73,79M24.88,109.1c-1.57,2.68-3.87,4.87-5.32,7.61a13.29,13.29,0,0,0-1.28,3.61,8.81,8.81,0,0,1,3.16-9c1.13-.86,2.4-1.58,3.55-2.44A1.43,1.43,0,0,0,24.88,109.1ZM26,90.56a9.35,9.35,0,0,0,0,2.94c-.11-.29-.22-.57-.3-.85-.66-2.27.27-4.2,1.86-5.76A9.27,9.27,0,0,0,26,90.56Zm63,20.38a18.2,18.2,0,0,0-6.12-11.83c-.45-.39-1-.79-1.47-1.19a23.32,23.32,0,0,1,4.59,2.4,8.26,8.26,0,0,1,3.58,5.61A15.11,15.11,0,0,1,89,110.94Z" transform="translate(0 0.1)"/><path class="cls-12" d="M88.51,119.8c-.1.46-.21.93-.33,1.39-10.56,5.17-22.79,6.38-34.76,7.26l-3.09.21L50.09,65l10.62.06c.31,3.35.63,6.8,2.23,9.75,1.71,3.12,4.75,5.51,5.79,8.91,1.09,3.65-.4,7.66.44,11.36.72,3.15,3,5.68,5.53,7.68s5.33,3.65,7.68,5.84a21.53,21.53,0,0,1,4.38,5.78A16.2,16.2,0,0,1,88.51,119.8Z" transform="translate(0 0.1)"/><path class="cls-13" d="M95.27,6.65c-.06-1.63-.12-3.26-.19-4.89,15.35-5.48,30.69,3.37,46-1.42.06,1.63.13,3.26.19,4.89C126,10.14,110.62,1.28,95.27,6.65Z" transform="translate(0 0.1)"/><path class="cls-14" d="M95.46,11.54c-.06-1.63-.12-3.26-.19-4.89,15.35-5.37,30.69,3.49,46-1.42.06,1.64.13,3.27.19,4.9C126.15,15.15,110.81,6.29,95.46,11.54Z" transform="translate(0 0.1)"/><path class="cls-15" d="M95.65,16.37c-.07-1.63-.13-3.26-.19-4.89,15.34-5.25,30.69,3.6,46-1.42.06,1.64.12,3.27.19,4.9C126.34,20.09,111,11.24,95.65,16.37Z" transform="translate(0 0.1)"/><path class="cls-16" d="M95.84,21.27c-.07-1.64-.13-3.27-.19-4.9,15.34-5.13,30.69,3.72,46-1.41l.18,4.89C126.53,25.1,111.18,16.25,95.84,21.27Z" transform="translate(0 0.1)"/><path class="cls-17" d="M96,26.12l-.18-4.9c15.34-5,30.69,3.84,46-1.41.07,1.63.13,3.26.19,4.89C126.72,30.07,111.37,21.21,96,26.12Z" transform="translate(0 0.1)"/><path class="cls-18" d="M96.21,31c-.06-1.63-.12-3.27-.19-4.9,15.35-4.91,30.7,3.95,46-1.42.06,1.63.13,3.27.19,4.9C126.91,35.08,111.56,26.22,96.21,31Z" transform="translate(0 0.1)"/><rect class="cls-19" x="95.14" y="0.91" width="1.16" height="42.03" transform="translate(-0.71 3.45) rotate(-2)"/><path class="cls-6" d="M52.62,104.55c1.47,2.81,4.45,3.34,7,3.11a23.81,23.81,0,0,0,13.64-6.61,40.63,40.63,0,0,0,6.42-7.92c.93-1.45,1.8-3,2.63-4.5A95,95,0,0,0,93.1,53.42a14.72,14.72,0,0,0,2.09-.25A7.68,7.68,0,0,0,99.37,51a9.7,9.7,0,0,0,2.08-5,8.14,8.14,0,0,0,.06-3,3.31,3.31,0,0,0-1.69-2.36c-.85-.4-2.3-.07-3.26.18a2.5,2.5,0,0,0-2.32-.73,8.11,8.11,0,0,0-4.8,3.24c-.72,1.24-2.14,2.39-3.7,8.3A86.85,86.85,0,0,1,66,86a82.64,82.64,0,0,1-6.36,6,30.85,30.85,0,0,0-5.4,5.31A8.46,8.46,0,0,0,52.62,104.55Z" transform="translate(0 0.1)"/><path class="cls-20" d="M96.12,48.16a1.33,1.33,0,0,1-.49-.09,2.55,2.55,0,0,1-1.26-1.34,7.45,7.45,0,0,1-.75-3.25h.22a7,7,0,0,0,.73,3.15,2.33,2.33,0,0,0,1.14,1.24,1.19,1.19,0,0,0,.94,0,.78.78,0,0,0,.43-.48,1.61,1.61,0,0,0,0-.78,11.59,11.59,0,0,1-.38-2.92,5.4,5.4,0,0,1,0-.56,3.86,3.86,0,0,0-.19-1.89,1.91,1.91,0,0,0-2.06-1L94.38,40a2.1,2.1,0,0,1,2.3,1.07,3.91,3.91,0,0,1,.21,2l0,.55a11.63,11.63,0,0,0,.38,2.86,1.78,1.78,0,0,1,.05.89,1.06,1.06,0,0,1-.54.62A1.49,1.49,0,0,1,96.12,48.16Z" transform="translate(0 0.1)"/><path class="cls-20" d="M93,49.08l-.12-.18a3.12,3.12,0,0,0,1.43-2.2l.21,0A3.3,3.3,0,0,1,93,49.08Z" transform="translate(0 0.1)"/><path class="cls-20" d="M101.49,45.58a2.54,2.54,0,0,0-.86-1.9,2.3,2.3,0,0,0-1.11-.26,10.77,10.77,0,0,0-2.66.18l0-.22a12.28,12.28,0,0,1,2.71-.18,2.41,2.41,0,0,1,1.21.3,2.63,2.63,0,0,1,1,2Z" transform="translate(0 0.1)"/><path class="cls-20" d="M100.71,41.75a3.79,3.79,0,0,0-1-.92,3.87,3.87,0,0,0-2.48,0,1,1,0,0,0-.51.19l-.15-.16a1.28,1.28,0,0,1,.61-.25,4.06,4.06,0,0,1,2.63.06,4,4,0,0,1,1.1,1Z" transform="translate(0 0.1)"/><path class="cls-20" d="M101.26,47.62l-.22,0a1.39,1.39,0,0,0-.42-1.14A2.26,2.26,0,0,0,99,46c-.32,0-.64.07-1,.11s-.6.09-.9.11l0-.22a8.65,8.65,0,0,0,.89-.1,7.57,7.57,0,0,1,1-.11,2.48,2.48,0,0,1,1.81.54A1.66,1.66,0,0,1,101.26,47.62Z" transform="translate(0 0.1)"/><path class="cls-20" d="M95,52.34a.57.57,0,0,1-.55-.27.71.71,0,0,1,0-.43,6.46,6.46,0,0,1,1.06-2.17,2.35,2.35,0,0,1,.59-.68,2.26,2.26,0,0,1,.77-.29,14,14,0,0,1,1.42-.23,2.8,2.8,0,0,1,1.37.09,1.12,1.12,0,0,1,.75,1.13l-.22,0a.92.92,0,0,0-.61-.9,2.7,2.7,0,0,0-1.26-.08c-.47.06-.94.14-1.4.24a1.85,1.85,0,0,0-.69.25,2,2,0,0,0-.54.62,6.21,6.21,0,0,0-1,2.1.45.45,0,0,0,0,.28c.08.17.37.15.45.15a2.59,2.59,0,0,0,1.48-.73,7.68,7.68,0,0,0,1.07-1.34l.18.13a7.87,7.87,0,0,1-1.1,1.37,2.81,2.81,0,0,1-1.61.78Z" transform="translate(0 0.1)"/><path class="cls-20" d="M98.33,51.52A8.41,8.41,0,0,0,97,51.27l0-.21a7.82,7.82,0,0,1,1.35.25Z" transform="translate(0 0.1)"/><path class="cls-21" d="M109.4,101a9.19,9.19,0,0,1-3.76,9.34,14.62,14.62,0,0,1-5.91,1.82q-2.79.41-5.6.61a84,84,0,0,1-12.59,0,17.65,17.65,0,0,1-5.38-1.09,9.07,9.07,0,0,1-2.11-1.26,9.32,9.32,0,0,1-2-2.16,7.09,7.09,0,0,1-1.33-4.39c.21-2.92,2.65-5.29,2.94-8.2a9.93,9.93,0,0,0-1.41-5.32,13.44,13.44,0,0,1-1.67-4.14c-.39-2.87,1.5-5.65,3.91-7.25A27.74,27.74,0,0,0,77,77.25c2.39-2,3.07-5.34,4.75-8a11.46,11.46,0,0,1,15.8-3.43,7.81,7.81,0,0,1,3.79,5.53c1.73-1.08,4.34.08,5.93,1.61a9.13,9.13,0,0,1,2.43,6c.4,6-2.81,11.93-1.51,17.77C108.54,98.21,109.12,99.57,109.4,101Z" transform="translate(0 0.1)"/><path class="cls-22" d="M94.13,112.76a84,84,0,0,1-12.59,0,17.65,17.65,0,0,1-5.38-1.09,9.07,9.07,0,0,1-2.11-1.26c-2.33-3.74.24-6.14,2.68-9.07.53-.65,1.16-1.21,1.64-1.88A6.92,6.92,0,0,0,79.54,95a10.94,10.94,0,0,0-1.36-4.44,25.22,25.22,0,0,1-1.42-2.73,4.16,4.16,0,0,1-.15-3c1.77-4.15,5.86-1.27,8.08-6.84,1.13-2.86,6-.81,9-.11Z" transform="translate(0 0.1)"/><path class="cls-23" d="M94.84,101.9a6.55,6.55,0,0,0-5.36-1.71,23.56,23.56,0,0,0-5.62,1.54,67.36,67.36,0,0,1-6.48,1.87,65.25,65.25,0,0,1-30.19,0,3.52,3.52,0,0,1-.83-1,6.75,6.75,0,0,0-4-2.74.58.58,0,0,0-.41,0,.44.44,0,0,0-.08.6,1.67,1.67,0,0,0,.53.41,3.34,3.34,0,0,1,1.31,1.65c-1.42-.35-2.45-1.33-3.61-2a.71.71,0,0,0-.68-.11.49.49,0,0,0-.19.55,1.38,1.38,0,0,0,.34.52,12.61,12.61,0,0,0,2.49,2.18c-1.67-.4-3.16-.81-4.65-1.24a.7.7,0,0,0-.53,0,.49.49,0,0,0-.08.71,1.44,1.44,0,0,0,.68.41c-.36-.08-.84-.11-1,.24s.17.66.45.88a12,12,0,0,0,3.69,1.84,9.21,9.21,0,0,1-3-.26c-.28-.08-.67-.13-.82.13s.22.66.57.82a24.75,24.75,0,0,0,7.9,1.85,73.11,73.11,0,0,0,27.52,6.45c1.33,0,2.67,0,4,0a30.48,30.48,0,0,0,7.74-1.2,18.25,18.25,0,0,0,9.67-6.49C95.34,106.15,96.13,104,94.84,101.9Zm-51.93,1.92h0a0,0,0,0,1,0,0Z" transform="translate(0 0.1)"/><path class="cls-4" d="M84.54,114.25a31.13,31.13,0,0,1-7.74,1.19,20.84,20.84,0,0,1-.28-8.25,24.34,24.34,0,0,1,.85-3.59,64.09,64.09,0,0,0,6.49-1.88,23.93,23.93,0,0,1,5.61-1.53,6.54,6.54,0,0,1,5.37,1.71c1.3,2.07.5,4.25-.64,5.84A18.3,18.3,0,0,1,84.54,114.25Z" transform="translate(0 0.1)"/><path class="cls-24" d="M80.78,119c6-1.89,12.2-4.14,16.94-8.26a12.78,12.78,0,0,0,3.38-4.2,5.2,5.2,0,0,0,0-4.81c-1.25-2.07-4.21-2.63-6.91-2.7-5.44-.13-11,1-16.44.53A23.62,23.62,0,0,0,80.78,119Z" transform="translate(0 0.1)"/><path class="cls-25" d="M88.37,179.58a47.41,47.41,0,0,1-11.83,5.35c-23.34,7.13-54.6.13-67-15.06,1.19-1.82,2.65-4,4.25-6.34l.62-.91.7-1.05c.21-.29.42-.59.62-.89h0c.27-.38.54-.77.81-1.18s.4-.58.61-.89.38-.55.57-.84l.62-.9c.25-.37.52-.75.77-1.13s.41-.6.62-.89.54-.81.82-1.2l.62-.91c6.4-9.29,12.62-18.19,13.59-19.48,2.78-3.7,2-9,1.27-13.68-1-6.36-1.67-13,.24-19.13a18.79,18.79,0,0,1,1.25-3c2.42-4.77,6.78-8.52,11.83-8.62,3.26,0,5-.11,6.53.49A11.71,11.71,0,0,1,59.52,92q7.66,7.33,15.33,14.68c8.68,8.31.49,16,.16,21.07-.57,8.65,4.11,22.55,7.53,30.86.12.28.23.56.35.83,0,.07.06.12.08.19.19.47.39.95.56,1.42a10,10,0,0,1,.4,1c.2.5.39,1,.55,1.51.13.35.25.68.36,1s.3.89.43,1.35.23.69.33,1h0c.15.48.28,1,.41,1.46s.2.7.28,1c.15.52.28,1,.39,1.55.09.36.17.71.25,1.06q.79,3.58,1.25,7.26S88.37,179.58,88.37,179.58Z" transform="translate(0 0.1)"/><g class="cls-26"><path class="cls-18" d="M86.93,172.09a96.16,96.16,0,0,1-24,4.36c-1.48.07-2.95.11-4.42.11-1,0-2,0-2.94-.06a82.1,82.1,0,0,1-41.84-13l.62-.91a80.87,80.87,0,0,0,41.26,12.79c2.09.08,4.2.07,6.31,0A94.89,94.89,0,0,0,86.68,171C86.77,171.39,86.85,171.74,86.93,172.09Z" transform="translate(0 0.1)"/><path class="cls-17" d="M86.29,169.48a95.37,95.37,0,0,1-25.8,4.25l-1.93,0c-1,0-2,0-2.94,0A82.37,82.37,0,0,1,15.1,161.57c.21-.29.42-.59.62-.89a81.29,81.29,0,0,0,39.94,11.94c1.3,0,2.62,0,4,0A93.66,93.66,0,0,0,86,168.43C86.11,168.78,86.21,169.13,86.29,169.48Z" transform="translate(0 0.1)"/><path class="cls-16" d="M85.6,167h0a92.8,92.8,0,0,1-27.06,4.17h-.11c-.94,0-1.86,0-2.79,0a80.57,80.57,0,0,1-39.11-11.6c.19-.29.4-.58.61-.89A79.54,79.54,0,0,0,55.67,170q1,0,2,0a90.91,90.91,0,0,0,27.62-4.11C85.39,166.27,85.5,166.61,85.6,167Z" transform="translate(0 0.1)"/><path class="cls-10" d="M84.84,164.57a95,95,0,0,1-26.28,3.83l-2,0-.92,0a82.8,82.8,0,0,1-37.91-10.59l.62-.9a81.64,81.64,0,0,0,37.33,10.4h.17a92.92,92.92,0,0,0,28.65-3.72C84.61,163.89,84.73,164.22,84.84,164.57Z" transform="translate(0 0.1)"/><path class="cls-14" d="M83.93,162a94.21,94.21,0,0,1-25.37,3.56c-1,0-2,0-2.94,0l-.81,0a82.85,82.85,0,0,1-35.71-9.79c.2-.29.41-.6.62-.89a81.66,81.66,0,0,0,34.49,9.56c.48,0,1,0,1.45.06A92,92,0,0,0,83.53,161,10,10,0,0,1,83.93,162Z" transform="translate(0 0.1)"/><path class="cls-13" d="M83,159.58A91.65,91.65,0,0,1,58.54,163c-1,0-1.94,0-2.9,0-.75,0-1.49-.07-2.24-.11a81.33,81.33,0,0,1-32.86-9.18l.62-.91a79.81,79.81,0,0,0,31.69,9c.94.06,1.87.12,2.82.15a89.49,89.49,0,0,0,26.87-3.28c.12.28.23.56.35.83C82.91,159.46,83,159.51,83,159.58Z" transform="translate(0 0.1)"/></g><path class="cls-27" d="M76.54,184.93c-23.34,7.13-54.6.13-67-15.06,1.19-1.82,2.65-4,4.25-6.34l.62-.91.7-1.05c.21-.29.42-.59.62-.89h0c.27-.38.54-.77.81-1.18s.4-.58.61-.89.38-.55.57-.84l.62-.9c.25-.37.52-.75.77-1.13s.41-.6.62-.89.54-.81.82-1.2l.62-.91c6.4-9.29,12.62-18.19,13.59-19.48,2.78-3.7,2-9,1.27-13.68-1-6.36-1.67-13,.24-19.13a18.79,18.79,0,0,1,1.25-3,40,40,0,0,0,.23,8.19c.8,6.39,2.8,12.54,4.44,18.76C45.24,136,47.09,148,51.71,159.12c.36.86.74,1.72,1.14,2.57.18.38.36.76.55,1.13.26.53.53,1.06.81,1.58s.39.75.6,1.12q.49.87,1,1.74c.23.38.46.75.71,1.12.35.55.71,1.11,1.11,1.65q.36.56.78,1.11c.37.52.76,1,1.18,1.52s.56.72.88,1.07c.47.56,1,1.13,1.48,1.67.32.36.66.71,1,1a34.24,34.24,0,0,0,12.72,8.2Z" transform="translate(0 0.1)"/><path class="cls-23" d="M86.79,203a4.3,4.3,0,0,1-.6-3.27,9.19,9.19,0,0,1,.31-1.28c.2-.67.45-1.32.65-2a19.65,19.65,0,0,0,.88-6.09c-3.89-8.09-11.48-16.94-17.21-25.87-1.18-1.83-2.39-4.13-1.37-6.06a50.53,50.53,0,0,1,4-5.91c2.19-2.81,4.58-5.5,6.81-8.3a68.52,68.52,0,0,1,5.81-6.91,15.71,15.71,0,0,1,7.71-4.4,10.66,10.66,0,0,1,9.41,3.66c3.21,4.15,2.23,6.72.5,9-1,1.34-10,9.43-18.35,14.55l-.87.53c3.62,1.07,4.48,4.11,5,6.22,1.66,6.7,1.44,13.3,3.21,20.44l.52,0a5.5,5.5,0,0,1,1.13.27,3.84,3.84,0,0,1,2.49,2.59,2.29,2.29,0,0,1,0,1.27,3.87,3.87,0,0,1-.6,1.09A63.24,63.24,0,0,1,86.79,203Z" transform="translate(0 0.1)"/><path class="cls-11" d="M86.79,203a4.3,4.3,0,0,1-.6-3.27,9.19,9.19,0,0,1,.31-1.28,12.23,12.23,0,0,0,5.94-7.77,27.09,27.09,0,0,1,.8-3.37,6.44,6.44,0,0,1,1.13.27,3.81,3.81,0,0,1,2.48,2.58,2.32,2.32,0,0,1,0,1.28,3.87,3.87,0,0,1-.6,1.09A63.24,63.24,0,0,1,86.79,203Z" transform="translate(0 0.1)"/><path class="cls-28" d="M85.37,160.06a47,47,0,0,1-11.89-7.56c2.19-2.81,4.58-5.5,6.81-8.3a68.52,68.52,0,0,1,5.81-6.91,15.71,15.71,0,0,1,7.71-4.4,10.66,10.66,0,0,1,9.41,3.66c3.21,4.15,2.23,6.72.5,9C102.67,146.85,93.76,154.94,85.37,160.06Z" transform="translate(0 0.1)"/><path class="cls-29" d="M123.8,201.48a4.3,4.3,0,0,1-2-2.62,9.24,9.24,0,0,1-.33-1.28c-.13-.68-.21-1.38-.35-2.07a19.57,19.57,0,0,0-2-5.8c-7.21-5.35-18-9.66-27.27-14.9-1.89-1.07-4-2.55-4-4.72a50.28,50.28,0,0,1,.82-7.11c.64-3.51,1.49-7,2.17-10.52a69.66,69.66,0,0,1,1.93-8.82,15.78,15.78,0,0,1,4.78-7.48,10.63,10.63,0,0,1,10-1.13c4.78,2.18,5.1,4.91,4.61,7.7-.31,1.67-4.43,13-9.48,21.41-.17.29-.35.59-.53.87,3.71-.73,5.89,1.56,7.33,3.19,4.6,5.15,7.46,11.1,12.36,16.59l.47-.2a5.53,5.53,0,0,1,1.13-.29,3.87,3.87,0,0,1,3.4,1.13,2.32,2.32,0,0,1,.61,1.13,3.76,3.76,0,0,1,0,1.25A63.3,63.3,0,0,1,123.8,201.48Z" transform="translate(0 0.1)"/><path class="cls-11" d="M123.8,201.48a4.3,4.3,0,0,1-2-2.62,10.91,10.91,0,0,1-.33-1.28,12.21,12.21,0,0,0,1.66-9.64,26.61,26.61,0,0,1-.87-3.35,5.53,5.53,0,0,1,1.13-.29,3.87,3.87,0,0,1,3.4,1.13,2.32,2.32,0,0,1,.61,1.13,3.76,3.76,0,0,1,0,1.25A63.3,63.3,0,0,1,123.8,201.48Z" transform="translate(0 0.1)"/><path class="cls-28" d="M102.58,164.14a47.06,47.06,0,0,1-14-1.16c.64-3.51,1.49-7,2.17-10.52a69.66,69.66,0,0,1,1.93-8.82,15.78,15.78,0,0,1,4.78-7.48,10.63,10.63,0,0,1,10-1.13c4.78,2.18,5.1,4.91,4.61,7.7C111.75,144.4,107.63,155.71,102.58,164.14Z" transform="translate(0 0.1)"/><path class="cls-10" d="M131.54,142.06a30.64,30.64,0,0,1-1.84,4c-12.31,21.86-49.16,17.25-62.83,10.06,0,0,.13-.16.15-.14a41.7,41.7,0,0,1,4.08-12.68c2.67-5.18,5.42-10.33,6.09-16,.2-1.61.41-3.13.67-4.56,2.26-13,6.76-18.78,11.27-22.28A9.82,9.82,0,0,1,92,98.73c1.2-.37,2.51-.31,5-.31,6,0,8.5,3.47,10.51,7.16C114.06,117.65,111,137.25,131.54,142.06Z" transform="translate(0 0.1)"/><path class="cls-30" d="M129.7,146c-12.31,21.86-49.16,17.25-62.83,10.06,0,0,.13-.16.15-.14a41.7,41.7,0,0,1,4.08-12.68c2.67-5.18,5.42-10.33,6.09-16,.2-1.61.41-3.13.67-4.56C87.58,145.8,106.86,153.35,129.7,146Z" transform="translate(0 0.1)"/><path class="cls-29" d="M99.91,99.83a10.18,10.18,0,0,1-6.45,3.31c-4,.26-3.27-1.73-3.27-1.73s.3-1.45.55-3.36a27.2,27.2,0,0,0,.2-6.36l7.21-1.94.83-.23a24.68,24.68,0,0,0-.62,5C98.31,96.43,98.53,98.5,99.91,99.83Z" transform="translate(0 0.1)"/><path class="cls-31" d="M98.15,89.75a6.59,6.59,0,0,1-.46,1.63,11.14,11.14,0,0,1-2.32,3.31,16,16,0,0,1-4.63,3.36,27.2,27.2,0,0,0,.2-6.36Z" transform="translate(0 0.1)"/><path class="cls-29" d="M103.06,86.69a21.16,21.16,0,0,1-12.82,8.58,7.5,7.5,0,0,1-4.43-.46,6,6,0,0,1-3-3.41A12.49,12.49,0,0,1,82.24,87a28.12,28.12,0,0,1,1.48-9.54h0a10.9,10.9,0,0,1,20.44-.86,10.19,10.19,0,0,1-1.12,10.08Z" transform="translate(0 0.1)"/><circle class="cls-29" cx="101.02" cy="88.51" r="2.79"/><path class="cls-32" d="M100.72,89.2l-.17-.14a2.43,2.43,0,0,1,2.65-.71l-.08.2A2.2,2.2,0,0,0,100.72,89.2Z" transform="translate(0 0.1)"/><path class="cls-32" d="M102.17,89.67a1.49,1.49,0,0,0-1.18-.81l0-.21a1.7,1.7,0,0,1,1.36.93Z" transform="translate(0 0.1)"/><path class="cls-33" d="M95.47,82.27a.89.89,0,0,0,.5.18.55.55,0,0,0,.48-.21.73.73,0,0,0-.07-.76,2.58,2.58,0,0,0-2.2-1.27c-.17,0-.83,0-.8.48C93.44,81.53,94.06,81.15,95.47,82.27Z" transform="translate(0 0.1)"/><path class="cls-33" d="M86.52,78.71a1,1,0,0,1-.52-.14.56.56,0,0,1-.28-.44c0-.27.25-.47.49-.59a2.59,2.59,0,0,1,2.54.18c.14.09.69.46.38.85C88.62,79.23,88.32,78.56,86.52,78.71Z" transform="translate(0 0.1)"/><path class="cls-32" d="M88.12,85.71a3.33,3.33,0,0,1-1-.71,1.32,1.32,0,0,1-.4-1.15,1.58,1.58,0,0,1,.32-.52c.81-1,1.67-2,2.55-2.9l.16.15c-.88.92-1.74,1.9-2.54,2.89a1.27,1.27,0,0,0-.28.44,1.1,1.1,0,0,0,.35.94,2.88,2.88,0,0,0,.92.66Z" transform="translate(0 0.1)"/><path class="cls-19" d="M94.41,85.38a1.41,1.41,0,0,0,0-.87,1.71,1.71,0,0,0-1.39-1,1.49,1.49,0,0,0-1.3.63,1.7,1.7,0,0,1,1.58,0A2.87,2.87,0,0,1,94.41,85.38Z" transform="translate(0 0.1)"/><path class="cls-19" d="M94.39,85.37a2.08,2.08,0,0,0,1.14-.06,2.42,2.42,0,0,1-1.25-.72C93.81,84,94.14,84.64,94.39,85.37Z" transform="translate(0 0.1)"/><path class="cls-19" d="M84.7,81.79a1.43,1.43,0,0,1,.62-.63,1.71,1.71,0,0,1,1.68.28,1.48,1.48,0,0,1,.47,1.37,1.68,1.68,0,0,0-1.13-1.1A2.79,2.79,0,0,0,84.7,81.79Z" transform="translate(0 0.1)"/><path class="cls-19" d="M84.72,81.79A2,2,0,0,1,84,81a2.57,2.57,0,0,0,1.39.37C86.1,81.23,85.42,81.45,84.72,81.79Z" transform="translate(0 0.1)"/><path class="cls-19" d="M91.42,87.76a11.53,11.53,0,0,1-.68,1,5.28,5.28,0,0,1-1.21,1.08,2.81,2.81,0,0,1-2.49.21,2.15,2.15,0,0,1-.64-.42,3.14,3.14,0,0,1-.8-1.35A7.89,7.89,0,0,1,85.37,86l.26.09c1.71.58,3.43,1.11,5.19,1.54Z" transform="translate(0 0.1)"/><path class="cls-34" d="M90.74,88.79a5.28,5.28,0,0,1-1.21,1.08,2.81,2.81,0,0,1-2.49.21,2.15,2.15,0,0,1-.64-.42,2.45,2.45,0,0,1,.36-.36,4,4,0,0,1,2.22-1A2.87,2.87,0,0,1,90.74,88.79Z" transform="translate(0 0.1)"/><path class="cls-35" d="M90.82,87.61a1,1,0,0,1-.56.34,2.67,2.67,0,0,1-.4,0,9.34,9.34,0,0,1-3.44-.91,2.16,2.16,0,0,1-.45-.29,1.33,1.33,0,0,1-.34-.69C87.34,86.65,89.06,87.18,90.82,87.61Z" transform="translate(0 0.1)"/><path class="cls-32" d="M87.34,91.33a1.85,1.85,0,0,1-1.3-.54l.16-.15a1.59,1.59,0,0,0,1.29.47l0,.21Z" transform="translate(0 0.1)"/><path class="cls-21" d="M84,77.08a3.36,3.36,0,0,1,2.6-1.64,7.56,7.56,0,0,1,2.2.4,35,35,0,0,0,3.94.86,9.31,9.31,0,0,0,3.07.09,4.43,4.43,0,0,0,2.79-1.64,7.63,7.63,0,0,0,.49,7.39,8.86,8.86,0,0,1,1.29,2.11,2.7,2.7,0,0,1-.48,2.49.68.68,0,0,0,.56,0,5,5,0,0,0,.51-.27,4,4,0,0,1,.92-.42,1.54,1.54,0,0,1,.82-.07,1.19,1.19,0,0,1,.73.59,5.42,5.42,0,0,1,.37,1,13.39,13.39,0,0,0,3.93-7.75,9.12,9.12,0,0,0-3-8,4,4,0,0,0-3.41-.56,9.23,9.23,0,0,0-4.14-3.42,12.9,12.9,0,0,0-5.32-1c-3.15.06-6.57,1.08-8.38,3.67-1.18,1.69-1.42,5.08-.18,7.93C83.66,77.49,83.43,78,84,77.08Z" transform="translate(0 0.1)"/><path class="cls-9" d="M43.53,95.66c2.59-.94,5.49-.07,7.75,1.51a33.74,33.74,0,0,1,5.93,6,95.72,95.72,0,0,0,6.78,7,89.47,89.47,0,0,0,37.31,21.1,4.84,4.84,0,0,0,1.67-.73,8.92,8.92,0,0,1,6.74-.8.73.73,0,0,1,.5.3.66.66,0,0,1-.29.84,2.32,2.32,0,0,1-.92.18,4.46,4.46,0,0,0-2.71,1.25c2,.53,3.9-.05,5.78-.11a1,1,0,0,1,.91.34.75.75,0,0,1-.13.85,1.85,1.85,0,0,1-.76.46,16.83,16.83,0,0,1-4.51,1.11c2.33.65,4.43,1.14,6.55,1.63a1,1,0,0,1,.67.36.76.76,0,0,1-.37,1,1.9,1.9,0,0,1-1.11.06c.5.14,1.12.45,1.08,1s-.64.76-1.14.85a15.78,15.78,0,0,1-5.77-.16,12.8,12.8,0,0,0,3.88,1.75c.41.1.92.31.94.75s-.72.73-1.25.68a33.44,33.44,0,0,1-11-3.09,97.36,97.36,0,0,1-38.22-10.82c-1.68-.87-3.34-1.8-4.94-2.82a42.51,42.51,0,0,1-8.77-7,27.64,27.64,0,0,1-7.66-15.32C40.12,100.9,40.58,97.47,43.53,95.66Zm62.88,38.93s0,0,0,0,0,0,0,0Z" transform="translate(0 0.1)"/><path class="cls-36" d="M84,124l-.06,0,0,0S84,124,84,124Z" transform="translate(0 0.1)"/><path class="cls-29" d="M96.52,103.39A6.48,6.48,0,0,0,91,104.45a22.57,22.57,0,0,0-4.2,4A66.09,66.09,0,0,1,55.44,127.6a3.44,3.44,0,0,1-1.2-.48,6.79,6.79,0,0,0-4.83-.5.58.58,0,0,0-.35.21.43.43,0,0,0,.22.56,1.56,1.56,0,0,0,.65.11,3.25,3.25,0,0,1,1.94.83c-1.41.37-2.78,0-4.13,0a.69.69,0,0,0-.64.23.49.49,0,0,0,.09.57,1.41,1.41,0,0,0,.55.3,12.71,12.71,0,0,0,3.23.72c-1.66.45-3.16.79-4.67,1.13a.71.71,0,0,0-.48.25.5.5,0,0,0,.27.66,1.45,1.45,0,0,0,.8,0c-.36.1-.8.31-.77.69s.46.51.82.56a11.88,11.88,0,0,0,4.12-.14,9.56,9.56,0,0,1-2.76,1.2c-.29.06-.66.21-.67.5s.52.49.9.45a24.71,24.71,0,0,0,7.82-2.14,73,73,0,0,0,27.26-7.48c1.2-.6,2.37-1.23,3.52-1.92a30.68,30.68,0,0,0,6.22-4.75,18.18,18.18,0,0,0,5.39-10.32C99,106.88,98.64,104.59,96.52,103.39ZM51.81,129.87h0Z" transform="translate(0 0.1)"/><path class="cls-4" d="M93.36,119.15a30.74,30.74,0,0,1-6.23,4.75,20.9,20.9,0,0,1-4.19-7.12,24.29,24.29,0,0,1-1-3.56,61.46,61.46,0,0,0,4.8-4.75,24.2,24.2,0,0,1,4.2-4,6.5,6.5,0,0,1,5.53-1.06c2.13,1.19,2.47,3.49,2.23,5.44A18.23,18.23,0,0,1,93.36,119.15Z" transform="translate(0 0.1)"/><path class="cls-11" d="M92.33,125.11c4.39-4.54,8.74-9.46,10.93-15.34a12.74,12.74,0,0,0,1-5.31,5.24,5.24,0,0,0-2.29-4.22c-2.09-1.23-5-.31-7.36.92-4.84,2.48-9.23,6.14-14.2,8.32A23.66,23.66,0,0,0,92.33,125.11Z" transform="translate(0 0.1)"/><rect class="cls-13" x="56.38" y="128.97" width="8.91" height="0.81" transform="translate(175.76 44.44) rotate(78.68)"/><rect class="cls-14" x="55.59" y="129.13" width="8.91" height="0.81" transform="matrix(0.2, 0.98, -0.98, 0.2, 175.27, 45.33)"/><rect class="cls-15" x="54.8" y="129.29" width="8.91" height="0.81" transform="translate(174.8 46.24) rotate(78.68)"/><rect class="cls-16" x="54" y="129.45" width="8.91" height="0.81" transform="translate(174.31 47.14) rotate(78.68)"/><rect class="cls-17" x="53.21" y="129.61" width="8.91" height="0.81" transform="translate(173.84 48.06) rotate(78.68)"/><rect class="cls-18" x="52.42" y="129.77" width="8.91" height="0.81" transform="matrix(0.2, 0.98, -0.98, 0.2, 173.34, 48.95)"/><path class="cls-9" d="M46.27,89.56A12.63,12.63,0,0,0,54,93.19c4.73.28,3.91-1.9,3.91-1.9s-.37-1.59-.66-3.69a27.24,27.24,0,0,1-.24-7L48.38,78.5l-1-.25a25.28,25.28,0,0,1,.75,5.47C48.19,85.83,47.91,88.1,46.27,89.56Z" transform="translate(0 0.1)"/><path class="cls-37" d="M48.38,78.5a6.44,6.44,0,0,0,.54,1.78,12,12,0,0,0,2.78,3.63,18.83,18.83,0,0,0,5.54,3.69,27.24,27.24,0,0,1-.24-7Z" transform="translate(0 0.1)"/><path class="cls-9" d="M43.36,77a21,21,0,0,0,3.11,2.55A20.27,20.27,0,0,0,59,83.6a8.32,8.32,0,0,0,4.68-1.41,6.55,6.55,0,0,0,2.47-4.28,13.49,13.49,0,0,0-.23-4.86,30.75,30.75,0,0,0-3.57-10h0A12,12,0,0,0,49,57.18a12.12,12.12,0,0,0-8.89,9.19A11.74,11.74,0,0,0,39.87,70,11.49,11.49,0,0,0,43.36,77Z" transform="translate(0 0.1)"/><path class="cls-9" d="M49.25,77.78a3.2,3.2,0,1,0-2.57,3.61A3.13,3.13,0,0,0,49.25,77.78Z" transform="translate(0 0.1)"/><path class="cls-20" d="M46.62,79.16A2.65,2.65,0,0,0,43.76,79l-.11-.18a2.85,2.85,0,0,1,3.11.19Z" transform="translate(0 0.1)"/><path class="cls-20" d="M45.05,80l-.21-.06a2,2,0,0,1,1.33-1.29l.06.21A1.73,1.73,0,0,0,45.05,80Z" transform="translate(0 0.1)"/><path class="cls-11" d="M51.21,70.85a1.13,1.13,0,0,1-.48.41.61.61,0,0,1-.6,0,.84.84,0,0,1-.25-.86,3,3,0,0,1,1.84-2.32c.19-.07.9-.37,1.08.18C53.09,69.18,52.25,69,51.21,70.85Z" transform="translate(0 0.1)"/><path class="cls-11" d="M62.52,65.84a1.1,1.1,0,0,0,.61-.14.61.61,0,0,0,.35-.49.88.88,0,0,0-.55-.72,3,3,0,0,0-3,.11c-.17.1-.83.5-.49,1C60.06,66.36,60.44,65.6,62.52,65.84Z" transform="translate(0 0.1)"/><path class="cls-19" d="M53.39,73.47a1.6,1.6,0,0,1-.13-1,2,2,0,0,1,1.46-1.35,1.74,1.74,0,0,1,1.6.55,2,2,0,0,0-1.82.25A3.26,3.26,0,0,0,53.39,73.47Z" transform="translate(0 0.1)"/><path class="cls-19" d="M53.41,73.46a2.5,2.5,0,0,1-1.33.09,2.87,2.87,0,0,0,1.34-1C53.88,71.79,53.6,72.57,53.41,73.46Z" transform="translate(0 0.1)"/><path class="cls-19" d="M64.14,68.93a1.58,1.58,0,0,0-.76-.69,2,2,0,0,0-1.94.45A1.71,1.71,0,0,0,61,70.32,2,2,0,0,1,62.23,69,3.27,3.27,0,0,1,64.14,68.93Z" transform="translate(0 0.1)"/><path class="cls-19" d="M64.12,68.94a2.43,2.43,0,0,0,.83-1,2.94,2.94,0,0,1-1.6.53C62.47,68.38,63.29,68.59,64.12,68.94Z" transform="translate(0 0.1)"/><path class="cls-20" d="M60.87,74.5l0-.22a1.88,1.88,0,0,0,1.42-1.2,1.45,1.45,0,0,0-.57-1.67,1.2,1.2,0,0,0-1-.09,1.07,1.07,0,0,0-.65.54l-.09.2-.1-.19a11.75,11.75,0,0,1-1.48-4.8l.22,0A11.53,11.53,0,0,0,60,71.6a1.37,1.37,0,0,1,.68-.49,1.42,1.42,0,0,1,1.13.11,1.67,1.67,0,0,1,.67,1.93A2.14,2.14,0,0,1,60.87,74.5Z" transform="translate(0 0.1)"/><path class="cls-20" d="M59,77.77A5.6,5.6,0,0,1,56.09,77l.11-.18a5.63,5.63,0,0,0,6.32-.51l.14.17A5.8,5.8,0,0,1,59,77.77Z" transform="translate(0 0.1)"/><path class="cls-20" d="M59.76,79.51a2.43,2.43,0,0,1-.65-.09l.06-.21A2.34,2.34,0,0,0,61,78.92l.12.18A2.54,2.54,0,0,1,59.76,79.51Z" transform="translate(0 0.1)"/><path class="cls-11" d="M60,57.72c-3.15-2.91-8.15-5-12.25-1.57C40,57.71,36.93,65.9,38.43,70.3a34.76,34.76,0,0,0,4.49,7.9c6.67-.8,3.2-7.12,3.24-7.23,1.55-1.83,4.24-2.33,5.52-4.42s.58-4.66-.53-6.75h0a5.2,5.2,0,0,0,2.69,1.7c1.3.17,2.51-.73,3.82-.84,2.18-.19,4.31,2,5.71,4.61A9.7,9.7,0,0,0,60,57.72Z" transform="translate(0 0.1)"/><path class="cls-19" d="M133,79.13a6.1,6.1,0,0,1-8.64-.27,21.25,21.25,0,0,0-2.28-2.93,8.19,8.19,0,0,0-3.63-1.31,17,17,0,0,1-6.58-2.46,7.41,7.41,0,0,1-3.38-5.9c0-2.33,1.48-4.43,1.73-6.75s-.64-4.45-1.26-6.63-.92-4.69.35-6.57c1.67-2.48,5.21-2.73,7.67-4.41,2.27-1.55,3.48-4.19,5.05-6.44s4.06-4.35,6.76-3.86c2.54.47,4.26,3.06,6.78,3.61,2.08.46,4.15-.56,6.21-1.11,3.31-.89,7.48-.19,9.11,2.84.86,1.6.86,3.57,1.76,5.15,1.72,3,5.84,3.45,8.56,5.58a8.24,8.24,0,0,1,2.73,8.73c-.5,1.61-1.49,3-2,4.62-.91,2.69-.49,5.61-.44,8.44s-.43,6-2.61,7.78-5.62,1.72-8.45,2.69c-3.37,1.15-6.51,4.07-10,3.19C137.73,82.43,136,79.58,133,79.13Z" transform="translate(0 0.1)"/><path class="cls-36" d="M149.05,124.73a28.73,28.73,0,0,1-5.34,5,19.21,19.21,0,0,1-8.93,2.89,58.75,58.75,0,0,1-9.47-.15,3.12,3.12,0,0,1-.15-.43,88.38,88.38,0,0,1-4.39-16.37L148,114.05c.24,2.26.47,4.53.7,6.79Z" transform="translate(0 0.1)"/><path class="cls-28" d="M148.66,120.84c-6.11,1.16-11.83,10.71-23.88,10.22-.49-1.29-.56-1.57-1-2.9a88.52,88.52,0,0,1-3-12.44L148,114.05C148.2,116.31,148.43,118.58,148.66,120.84Z" transform="translate(0 0.1)"/><path class="cls-25" d="M152.48,118.13a2.82,2.82,0,0,1-2.09.9c-1.2.16-2.4.35-3.59.57s-2.23.43-3.34.69l-1.85.46c-4.06,1-8.07,2.33-12.21,3-4.75.8-9.82.79-14.23-1.2a58.71,58.71,0,0,0,1.72-12c0-.47,0-.93,0-1.4h0c-.11-4.5-.79-9.09.8-13.26a24.81,24.81,0,0,1,2.23-4.16c1.6-2.6,3.21-5.2,5.06-7.64a15.62,15.62,0,0,1,3.09-3.25c3.51-2.64,8.33-2.64,12.68-2.06,4.61.62,7.6,4.13,9,7.29,3.18,7.06.57,21.08,2.38,30.59C152.25,117.17,152.36,117.66,152.48,118.13Z" transform="translate(0 0.1)"/><g class="cls-38"><path class="cls-39" d="M141.61,120.75c-4.06,1-8.07,2.33-12.21,3-4.75.8-9.82.79-14.23-1.2a58.71,58.71,0,0,0,1.72-12c0-.47,0-.93,0-1.4.26.47.55.91.86,1.36,2.82,4,7.43,6.47,12.06,8.14A29.16,29.16,0,0,0,141.61,120.75Z" transform="translate(0 0.1)"/></g><path class="cls-3" d="M148.81,188.55a89.64,89.64,0,0,0-4.37,11c3.33,2.09,4.81,6.45,4.88,10.64s-1,8.31-2.17,12.34c-1.36,4.88-4.36,11.77-4.36,18.1a3.08,3.08,0,0,0,.5,1.36,13.56,13.56,0,0,1,.92,1.69,6.76,6.76,0,0,1-.35,5.29c-5.91,2.13-13.52,4.59-20.15,4.16-.44-1.66-.77-2.71,1.69-4.35a15.63,15.63,0,0,1,1.4-.84c3.23-1.77,7.3-6.3,7.2-7.89-1.18-18.93-6.1-36.17-8.22-54.48a135.07,135.07,0,0,1-1-17.34,28.49,28.49,0,0,1,1.59-10.44c1.32-3.27,3.94-6.21,7.37-7.09,9.49-2.45,15.6,4.35,17.91,10.54s1.71,13.1,0,19.5A52.38,52.38,0,0,1,148.81,188.55Z" transform="translate(0 0.1)"/><path class="cls-40" d="M143.86,248.93c-5.91,2.13-13.52,4.59-20.15,4.16-.44-1.66-.77-2.71,1.69-4.35,4.51.55,10.78-1.45,14.48-4.17,1.15-.84,2.22-1.84,3.41-2.62a13.56,13.56,0,0,1,.92,1.69A6.76,6.76,0,0,1,143.86,248.93Z" transform="translate(0 0.1)"/><path class="cls-28" d="M151.71,180.7a52.38,52.38,0,0,1-2.9,7.85,38.17,38.17,0,0,1-10.73.11,61.67,61.67,0,0,1-12.3-3.13,135.07,135.07,0,0,1-1-17.34,28.49,28.49,0,0,1,1.59-10.44c1.32-3.27,3.94-6.21,7.37-7.09,9.49-2.45,15.6,4.35,17.91,10.54S153.39,174.3,151.71,180.7Z" transform="translate(0 0.1)"/><path class="cls-36" d="M239.52,156.3a6.13,6.13,0,0,1-4.59,1.24,13,13,0,0,1-1.87-.28c-1-.21-1.93-.49-2.92-.7a28.25,28.25,0,0,0-8.79-.53c-11.08,6.52-22.82,18.39-34.88,27.62-2.47,1.9-5.61,3.9-8.47,2.68a72.18,72.18,0,0,1-8.92-5.06c-4.26-2.79-8.38-5.87-12.65-8.72a101,101,0,0,1-10.55-7.47c-3.23-2.84-6-6.36-7.18-10.48-1.28-4.45.69-10.73,4.11-13.86,5.53-5.08,9.32-4,12.72-1.77,2,1.34,14.63,13.08,22.93,24.45l.86,1.18c1.09-5.3,5.34-6.88,8.28-7.88,9.37-3.18,18.81-3.64,28.78-7,0-.24,0-.49,0-.74a7.8,7.8,0,0,1,.25-1.65,5.54,5.54,0,0,1,3.39-3.85,3.33,3.33,0,0,1,1.82-.17,5.55,5.55,0,0,1,1.63.73A90.79,90.79,0,0,1,239.52,156.3Z" transform="translate(0 0.1)"/><path class="cls-40" d="M239.52,156.3a6.15,6.15,0,0,1-4.59,1.25,16.9,16.9,0,0,1-1.87-.29,17.42,17.42,0,0,0-11.78-7.56,37.57,37.57,0,0,1-4.9-.74,7.9,7.9,0,0,1,.25-1.65,5.52,5.52,0,0,1,3.39-3.85,3.33,3.33,0,0,1,1.82-.17,5.41,5.41,0,0,1,1.63.73A91.27,91.27,0,0,1,239.52,156.3Z" transform="translate(0 0.1)"/><path class="cls-28" d="M178.46,163.42a67.24,67.24,0,0,1-9.38,17.85c-4.26-2.79-8.38-5.87-12.65-8.72a101,101,0,0,1-10.55-7.47c-3.23-2.84-6-6.36-7.18-10.48-1.28-4.45.69-10.73,4.11-13.86,5.53-5.08,9.32-4,12.72-1.77C157.57,140.31,170.16,152.05,178.46,163.42Z" transform="translate(0 0.1)"/><path class="cls-41" d="M154.46,212.5a20.43,20.43,0,0,1-13.16,6.09l-.8,0h-1.12c-4.85-.13-9.46-2-14.16-3.18,1-28.84-2.64-55.41-2.64-86.19l12.17-1.8.68-.08L147.12,126c6.7,15.33,9.46,32.6,6.29,49-.88,4.51-2.19,9-2.59,13.55C150.12,196.63,152.3,204.67,154.46,212.5Z" transform="translate(0 0.1)"/><path class="cls-42" d="M141.3,218.59l-.8,0c-.15-1.24-.34-2.48-.52-3.7a87,87,0,0,1-1-10.45c-.1-3.33,0-6.66,0-10s0-6.65.13-10,.13-6.59,0-9.89A70.27,70.27,0,0,0,138,164.5a209.2,209.2,0,0,1-3.26-37l.68-.08c0,6.74.35,13.49,1,20.22.32,3.3.74,6.61,1.23,9.9s1.16,6.52,1.64,9.79c1,6.54.68,13.15.6,19.73,0,3.28,0,6.58-.09,9.86s-.07,6.76.12,10.13c.18,3.12.63,6.19,1.07,9.27C141.11,217.05,141.22,217.82,141.3,218.59Z" transform="translate(0 0.1)"/><path class="cls-43" d="M201.19,175.44a164.2,164.2,0,0,0-16,11.25c-1.89,1.88-5.95,2.49-9.39,1.57s-6.37-3.13-9.12-5.4c-18.6-15.28-33.22-29.08-44.1-53.74,5.54-.75,17.94-2,27.15-7.11,2.54,4,6,6.41,8.8,9.21,3.69,3.67,6.33,8.23,8.93,12.74q4.28,7.38,8.52,14.75a47,47,0,0,1,9.4-6.58c3.19,2.22,7.09,3.19,10.18,5.2a8.72,8.72,0,0,1,.73.51,9.66,9.66,0,0,1,1.37,1.19C201.69,163.16,201.57,169.67,201.19,175.44Z" transform="translate(0 0.1)"/><path class="cls-42" d="M153.93,149.52c-2.87-3.71-5.48-7.62-8.48-11.23s-6.16-6.89-8.91-10.61c-.27-.36-.89,0-.62.36,2.74,3.7,5.91,7,8.86,10.56s5.74,7.63,8.68,11.39C153.73,150.33,154.19,149.86,153.93,149.52Z" transform="translate(0 0.1)"/><path class="cls-42" d="M196.29,157.84c-4.44,2.69-8.8,5.52-12.39,9.28a.44.44,0,0,1-.3.13,12.19,12.19,0,0,1-2.43,2,16.85,16.85,0,0,1-2.24.89,3.8,3.8,0,0,0-2,1.65.41.41,0,0,1-.63.09c-.72-.82-1.21-1.81-1.9-2.63a1.23,1.23,0,0,1-.57.78,1.63,1.63,0,0,1-1.41-.08,10.83,10.83,0,0,1-3-2.16c-1.48-1.34-2.9-2.71-4.24-4.18-3.18-3.48-6-7.22-9.42-10.5-.33-.32.17-.83.51-.5,1.7,1.65,3.29,3.42,4.83,5.22a96,96,0,0,0,8.33,9,20.4,20.4,0,0,0,2.38,2,3.2,3.2,0,0,0,1.33.63c.58.06.63-.54.64-1a.36.36,0,0,1,.6-.25,16.89,16.89,0,0,1,2.14,2.71,4,4,0,0,1,1.49-1.24c.76-.37,1.6-.54,2.37-.89a10.18,10.18,0,0,0,2.74-2,.39.39,0,0,1,.11-.21,58.17,58.17,0,0,1,12.28-9.17A8.72,8.72,0,0,1,196.29,157.84Z" transform="translate(0 0.1)"/><path class="cls-44" d="M122.14,130.8c5.39.45,12.36-.91,14.8-1.46a46.08,46.08,0,0,0,14.61-6.15s-1.55-3.46-1.8-3.33c-3.77,1.5-7.49,3.12-11.29,4.49-5.2,1.88-11,2.1-16.52,2.37C121.91,127.94,122,129.17,122.14,130.8Z" transform="translate(0 0.1)"/><path class="cls-36" d="M140,79.14A11.17,11.17,0,0,1,133,82.77c-4.33.29-3.58-1.9-3.58-1.9s.33-1.59.6-3.69a29.69,29.69,0,0,0,.22-7l7.91-2.13.91-.25a27.29,27.29,0,0,0-.68,5.47C138.28,75.41,138.53,77.68,140,79.14Z" transform="translate(0 0.1)"/><path class="cls-28" d="M138.11,68.08a7.12,7.12,0,0,1-.5,1.78,12,12,0,0,1-2.55,3.64A17.09,17.09,0,0,1,130,77.18a29.69,29.69,0,0,0,.22-7Z" transform="translate(0 0.1)"/><path class="cls-36" d="M143.5,64.72a21.18,21.18,0,0,1-2.57,3.09,20.31,20.31,0,0,1-11.5,6.33,8.29,8.29,0,0,1-4.86-.5,6.59,6.59,0,0,1-3.23-3.74,13.58,13.58,0,0,1-.69-4.82,30.79,30.79,0,0,1,1.64-10.47h0a12,12,0,0,1,12-8.29,12.12,12.12,0,0,1,10.45,7.35,11.61,11.61,0,0,1,.88,3.51A11.49,11.49,0,0,1,143.5,64.72Z" transform="translate(0 0.1)"/><path class="cls-36" d="M138.2,66.6a3.06,3.06,0,1,1,3.06,3.06A3.05,3.05,0,0,1,138.2,66.6Z" transform="translate(0 0.1)"/><path class="cls-45" d="M140.92,67.47l-.17-.14a2.67,2.67,0,0,1,2.9-.78l-.08.21A2.44,2.44,0,0,0,140.92,67.47Z" transform="translate(0 0.1)"/><path class="cls-45" d="M142.54,68a1.67,1.67,0,0,0-1.31-.89l0-.22a1.88,1.88,0,0,1,1.48,1Z" transform="translate(0 0.1)"/><path class="cls-19" d="M124.17,59.76a.63.63,0,0,0,.63.43.74.74,0,0,0,.52-.32,1.07,1.07,0,0,0,.19-.54,1.08,1.08,0,0,0-.19-.86.62.62,0,0,0-.51-.2.73.73,0,0,0-.48.34A1.24,1.24,0,0,0,124.17,59.76Z" transform="translate(0 0.1)"/><path class="cls-19" d="M132.06,62.21a.64.64,0,0,0,.63.43.74.74,0,0,0,.51-.32,1.18,1.18,0,0,0,.2-.54,1.05,1.05,0,0,0-.2-.86.58.58,0,0,0-.5-.2.65.65,0,0,0-.48.34A1.21,1.21,0,0,0,132.06,62.21Z" transform="translate(0 0.1)"/><path class="cls-19" d="M135.17,59.87a.9.9,0,0,0,.55.2.62.62,0,0,0,.53-.22.8.8,0,0,0-.08-.84,2.84,2.84,0,0,0-2.41-1.4c-.19,0-.91,0-.88.53C133,59.06,133.63,58.64,135.17,59.87Z" transform="translate(0 0.1)"/><path class="cls-19" d="M125.36,56a1,1,0,0,1-.57-.15.59.59,0,0,1-.31-.48c0-.3.27-.52.53-.65a2.84,2.84,0,0,1,2.78.19c.16.11.77.5.43.93C127.65,56.54,127.32,55.81,125.36,56Z" transform="translate(0 0.1)"/><path class="cls-45" d="M126.46,63.64a1.55,1.55,0,0,1-.91-1.14,1.32,1.32,0,0,1,.6-1.33,1.15,1.15,0,0,1,1.43.23l0,.06,1-2.27.2.08c-.34.82-.69,1.64-1,2.46l-.08.2-.11-.19c0-.07-.09-.14-.14-.2a.92.92,0,0,0-1.15-.18,1.09,1.09,0,0,0-.49,1.1,1.35,1.35,0,0,0,.78,1Z" transform="translate(0 0.1)"/><path class="cls-19" d="M130.73,65.9A10.54,10.54,0,0,1,130,67a5.41,5.41,0,0,1-1.33,1.18,3,3,0,0,1-2.73.23,2.19,2.19,0,0,1-.69-.46,3.35,3.35,0,0,1-.89-1.48,8.71,8.71,0,0,1-.25-2.55l.29.1c1.87.63,3.76,1.21,5.68,1.68Z" transform="translate(0 0.1)"/><path class="cls-34" d="M130,67a5.41,5.41,0,0,1-1.33,1.18,3,3,0,0,1-2.73.23,2.19,2.19,0,0,1-.69-.46,2.4,2.4,0,0,1,.39-.39,4.31,4.31,0,0,1,2.43-1A3.13,3.13,0,0,1,130,67Z" transform="translate(0 0.1)"/><path class="cls-35" d="M130.06,65.73a1,1,0,0,1-.6.37,2.2,2.2,0,0,1-.44,0,10.29,10.29,0,0,1-3.77-1,1.64,1.64,0,0,1-.5-.32,1.4,1.4,0,0,1-.37-.75C126.25,64.68,128.14,65.26,130.06,65.73Z" transform="translate(0 0.1)"/><path class="cls-45" d="M126.25,69.81a2,2,0,0,1-1.42-.59l.16-.15a1.78,1.78,0,0,0,1.43.51l0,.22Z" transform="translate(0 0.1)"/><path class="cls-19" d="M140.25,64.75c-2.35-1.11-2.14-3.74-1.45-5.69a12.38,12.38,0,0,0,.82-2.22c.25-1.55-.7-3.41.35-4.58-1.19.43-1.92,1.89-3.18,2-2.18.17-3.06-3.75-5.22-3.44a4.91,4.91,0,0,0-1.8,1,5.9,5.9,0,0,1-2.53.78,5.41,5.41,0,0,1-3.43-.66,3,3,0,0,1-1.38-3,1.53,1.53,0,0,1,.51-.85c.45-.36,1.09-.33,1.62-.55,1.43-.6,1.51-2.54,2.12-4A4.77,4.77,0,0,1,132.57,41c1.38.53,2.49,1.71,3.94,2,1.29.23,2.58-.32,3.88-.39A5.4,5.4,0,0,1,145.62,46c.51,1.42.42,3.06,1.24,4.33a19.11,19.11,0,0,0,2.45,2.39c1.85,2,1.94,5.15.79,7.59A17.22,17.22,0,0,1,144.26,67,2.67,2.67,0,0,0,143,64.3,2.35,2.35,0,0,0,140.25,64.75Z" transform="translate(0 0.1)"/><path class="cls-36" d="M140.3,89.89a8.72,8.72,0,0,0-2.9,7,31.1,31.1,0,0,0,1.4,7.69,90.15,90.15,0,0,1,1.77,8.89A87.74,87.74,0,0,1,137,153.84a4.69,4.69,0,0,1-1.43,1,9.09,9.09,0,0,0-4.12,5,.66.66,0,0,0,0,.55.57.57,0,0,0,.78.17,2,2,0,0,0,.61-.65,4.4,4.4,0,0,1,2.37-1.56c-.64,1.85-2.07,3.11-3.1,4.6a.93.93,0,0,0-.22.89.65.65,0,0,0,.71.32,2,2,0,0,0,.74-.39,16.67,16.67,0,0,0,3.19-3.09c-.72,2.19-1.44,4.13-2.18,6.08a.94.94,0,0,0-.08.71.67.67,0,0,0,.94.19,2,2,0,0,0,.63-.87c-.15.47-.25,1.12.2,1.37s.91-.14,1.23-.5a16.12,16.12,0,0,0,2.9-4.73,12.86,12.86,0,0,1-.7,4c-.14.38-.25.89.07,1.13s.92-.22,1.16-.68a33.15,33.15,0,0,0,3.4-10.35,98.05,98.05,0,0,0,11.78-36.1c.22-1.77.38-3.56.45-5.35a41,41,0,0,0-.71-10.5A24.44,24.44,0,0,0,148,91.42C146,89.71,143.21,88.39,140.3,89.89Zm-3.4,69.71v0s0,0,0,0S136.91,159.59,136.9,159.6Z" transform="translate(0 0.1)"/><path class="cls-4" d="M155.63,105.09a41,41,0,0,1,.71,10.5,28.31,28.31,0,0,1-11.07-.58,32,32,0,0,1-4.7-1.56,90.15,90.15,0,0,0-1.77-8.89,31.67,31.67,0,0,1-1.41-7.69,8.75,8.75,0,0,1,2.91-7c2.91-1.5,5.74-.18,7.74,1.52A24.53,24.53,0,0,1,155.63,105.09Z" transform="translate(0 0.1)"/><path class="cls-35" d="M161.55,110.66c-1.84-8.28-4.14-16.8-9.11-23.61a17.18,17.18,0,0,0-5.23-5,7,7,0,0,0-6.43-.57c-2.92,1.44-4,5.34-4.41,8.94-.81,7.26,0,14.88-1.19,22.06C144,115.63,153.6,115.15,161.55,110.66Z" transform="translate(0 0.1)"/><path class="cls-13" d="M184.7,72.37c.41-1.66.82-3.3,1.24-4.94,14.87,2.35,29.74,14.86,44.61,13.17-.41,1.76-.83,3.5-1.24,5.23C214.44,86.74,199.57,74.14,184.7,72.37Z" transform="translate(0 0.1)"/><path class="cls-14" d="M183.46,77.37c.41-1.68.83-3.34,1.24-5,14.87,1.77,29.74,14.37,44.61,13.46q-.62,2.6-1.23,5.16C213.2,91.18,198.33,78.52,183.46,77.37Z" transform="translate(0 0.1)"/><path class="cls-15" d="M182.24,82.34q.63-2.53,1.24-5c14.87,1.16,29.74,13.81,44.61,13.62q-.61,2.56-1.23,5.1C212,95.52,197.11,82.85,182.24,82.34Z" transform="translate(0 0.1)"/><path class="cls-16" d="M181,87.45c.41-1.71.82-3.42,1.23-5.11C197.11,82.85,212,95.52,226.86,96q-.63,2.55-1.24,5C210.75,99.92,195.88,87.26,181,87.45Z" transform="translate(0 0.1)"/><path class="cls-17" d="M179.78,92.56c.41-1.73.83-3.45,1.24-5.16,14.87-.18,29.74,12.48,44.61,13.63-.41,1.67-.82,3.34-1.24,5C209.52,104.25,194.65,91.65,179.78,92.56Z" transform="translate(0 0.1)"/><path class="cls-18" d="M178.55,97.79c.41-1.75.82-3.5,1.23-5.23,14.87-.91,29.74,11.69,44.61,13.46q-.62,2.49-1.23,5C208.29,108.62,193.42,96.11,178.55,97.79Z" transform="translate(0 0.1)"/><rect class="cls-19" x="160.12" y="86.61" width="42.03" height="1.16" transform="translate(50.99 240.51) rotate(-75.36)"/><path class="cls-23" d="M171.43,109.89a5.36,5.36,0,0,0,1.89,2.68,10.15,10.15,0,0,0,1.2.82,65.87,65.87,0,0,0-4.69,25.12c0,1.21.06,2.43.17,3.62.08.91.18,1.82.33,2.73a.06.06,0,0,1,0,0,49.4,49.4,0,0,0,1.39,6.76c1.4,5.37,3.56,10.74,7.57,14.58a2.83,2.83,0,0,0,.81.57,2,2,0,0,0,1.51-.09c1.69-.69,2.65-2.46,3.26-4.18,2.63-7.54,0-13.46-1-16.25-1.36-3.81-3.62-7.37-4.74-11.23a60.59,60.59,0,0,1,.43-20.38,14.47,14.47,0,0,0,.39-6.29,5.62,5.62,0,0,0-1.91-3.54,1.73,1.73,0,0,0-1.66-.29,3.87,3.87,0,0,0-1.94-1.16,2.32,2.32,0,0,0-1.81.91,5.83,5.83,0,0,0-.92,1.85A6.83,6.83,0,0,0,171.43,109.89Z" transform="translate(0 0.1)"/><path class="cls-46" d="M174.81,109.33h-.13a1,1,0,0,1-.69-.41.68.68,0,0,1-.14-.57,1.22,1.22,0,0,1,.32-.55,8,8,0,0,0,1.15-1.63c.05-.12.1-.23.16-.35a2.72,2.72,0,0,1,.78-1.18,1.5,1.5,0,0,1,1.8.08l-.14.17a1.28,1.28,0,0,0-1.53-.07,2.47,2.47,0,0,0-.71,1.09c-.06.12-.11.24-.17.35a7.58,7.58,0,0,1-1.18,1.68,1,1,0,0,0-.27.45.5.5,0,0,0,.1.41.79.79,0,0,0,.54.31,1.57,1.57,0,0,0,1.08-.38,5,5,0,0,0,1.45-1.69l.19.1a5.12,5.12,0,0,1-1.51,1.76A2,2,0,0,1,174.81,109.33Z" transform="translate(0 0.1)"/><path class="cls-46" d="M175.92,110.76a2.35,2.35,0,0,1-.18-2l.2.08a2.11,2.11,0,0,0,.17,1.78Z" transform="translate(0 0.1)"/><path class="cls-46" d="M175.35,106.17a7.68,7.68,0,0,0-1.57-1,1.6,1.6,0,0,0-.76-.2c-.47,0-.82.48-1.11.88l-.18-.12a1.89,1.89,0,0,1,1.28-1,1.74,1.74,0,0,1,.86.21,7.83,7.83,0,0,1,1.61,1Z" transform="translate(0 0.1)"/><path class="cls-46" d="M176.29,104.61a.77.77,0,0,0-.24-.27,2.67,2.67,0,0,0-1.52-.77h0a2.6,2.6,0,0,0-.9.23l-.08-.21a2.72,2.72,0,0,1,1-.24,2.91,2.91,0,0,1,1.65.82.88.88,0,0,1,.31.37Z" transform="translate(0 0.1)"/><path class="cls-46" d="M174.36,107.68a6.18,6.18,0,0,1-.53-.36,5.14,5.14,0,0,0-.54-.37,1.54,1.54,0,0,0-1.15-.23,1,1,0,0,0-.6.55l-.2-.08a1.16,1.16,0,0,1,.74-.68,1.77,1.77,0,0,1,1.32.25c.19.12.38.26.56.39s.34.24.51.34Z" transform="translate(0 0.1)"/><path class="cls-46" d="M173.92,112.2a.65.65,0,0,1-.33-.11,2,2,0,0,1-.75-1,5.55,5.55,0,0,1-.24-1.2l.22,0A5.06,5.06,0,0,0,173,111a1.76,1.76,0,0,0,.67.91c.08.06.22.1.28,0a.24.24,0,0,0,.08-.15,4.34,4.34,0,0,0,.05-1.61,1.43,1.43,0,0,0-.13-.54,1.32,1.32,0,0,0-.34-.37,8.87,8.87,0,0,0-.78-.59,1.77,1.77,0,0,0-.78-.35.6.6,0,0,0-.63.33l-.21-.07a.81.81,0,0,1,.86-.48,1.94,1.94,0,0,1,.88.39,9.81,9.81,0,0,1,.8.6,1.49,1.49,0,0,1,.39.44,1.57,1.57,0,0,1,.15.62,4.18,4.18,0,0,1-.05,1.69.48.48,0,0,1-.16.27A.36.36,0,0,1,173.92,112.2Z" transform="translate(0 0.1)"/><path class="cls-46" d="M172.79,110.84a6.87,6.87,0,0,0-.88-.27l0-.21a6.08,6.08,0,0,1,.92.28Z" transform="translate(0 0.1)"/><rect class="cls-13" x="170.66" y="122.03" width="9.41" height="0.77" transform="translate(12.78 -16.42) rotate(5.6)"/><rect class="cls-14" x="170.59" y="122.79" width="9.41" height="0.77" transform="translate(12.87 -16.43) rotate(5.6)"/><rect class="cls-15" x="170.51" y="123.55" width="9.41" height="0.77" transform="translate(12.92 -16.4) rotate(5.6)"/><rect class="cls-16" x="170.44" y="124.32" width="9.41" height="0.77" transform="translate(13.02 -16.41) rotate(5.61)"/><rect class="cls-17" x="170.36" y="125.08" width="9.41" height="0.77" transform="translate(13.07 -16.37) rotate(5.6)"/><rect class="cls-18" x="170.29" y="125.84" width="9.41" height="0.77" transform="translate(13.17 -16.38) rotate(5.6)"/><path class="cls-47" d="M165.93,147.16c2,5.77,4.32,11.68,8.43,16.15a12.21,12.21,0,0,0,4.15,3.16,5,5,0,0,0,4.65-.12c2-1.26,2.43-4.14,2.42-6.75,0-5.26-1.24-10.65-.94-15.88A22.81,22.81,0,0,0,165.93,147.16Z" transform="translate(0 0.1)"/><path class="cls-48" d="M179.21,253.36a4.55,4.55,0,0,1-3.09.73,29.72,29.72,0,0,0-3.12-.21c-.66,0-1.3.18-2,.27a22.55,22.55,0,0,1-7.68-.21,3,3,0,0,1,0-.52,4.22,4.22,0,0,1,2.15-2.87l.26-.14a29.29,29.29,0,0,0,3.35-1.83c1.57-1.19,2.42-2.43,2.26-4.4l6.7.42a8.4,8.4,0,0,0,.2,4.4c.17.37.37.7.53,1.06a5.12,5.12,0,0,1,.48,2.1A4.79,4.79,0,0,1,179.21,253.36Z" transform="translate(0 0.1)"/><path class="cls-25" d="M168.57,254.37a22,22,0,0,1-5.21-.43,3,3,0,0,1,0-.52,4.22,4.22,0,0,1,2.15-2.87l.26-.14a3.46,3.46,0,0,1,2.13,1.35,3.87,3.87,0,0,1,.49,1.33c0,.07,0,.16,0,.23A9.38,9.38,0,0,1,168.57,254.37Z" transform="translate(0 0.1)"/><path class="cls-25" d="M179.21,253.36a4.55,4.55,0,0,1-3.09.73,29.72,29.72,0,0,0-3.12-.21c-.66,0-1.3.18-2,.27a22.55,22.55,0,0,1-7.68-.21,3,3,0,0,1,0-.52,17.37,17.37,0,0,0,4.44,0l.63-.07c1.75-.23,3.5-.54,5.28-.61s4.08.57,5.58-.55A4.79,4.79,0,0,1,179.21,253.36Z" transform="translate(0 0.1)"/><path class="cls-41" d="M192.28,180c-.54,10.3-1.48,24.6-5.25,34.17-.79,2-1.67,4.09-1.32,6.26.17,1.12.67,2.2.89,3.32.48,2.34-.28,4.67-1.1,6.86a111.52,111.52,0,0,1-7,15.15s-8.16.21-7.86,0c.26-22.15.39-44.29,2.6-66.25Z" transform="translate(0 0.1)"/><path class="cls-48" d="M214.72,254.89a4.27,4.27,0,0,1-3,.74,27.15,27.15,0,0,0-3-.19c-.63,0-1.25.18-1.88.27a20.24,20.24,0,0,1-2.37.23,20.84,20.84,0,0,1-5-.41,3.09,3.09,0,0,1,0-.53,4.19,4.19,0,0,1,2.08-2.87l.24-.14a27.75,27.75,0,0,0,3.23-1.84,4.75,4.75,0,0,0,2.19-4.4l6.44.39a8.72,8.72,0,0,0,.18,4.4c.15.37.35.7.51,1.06a5.61,5.61,0,0,1,.45,2.1A5.92,5.92,0,0,1,214.72,254.89Z" transform="translate(0 0.1)"/><path class="cls-25" d="M204.49,255.94a20.84,20.84,0,0,1-5-.41,3.09,3.09,0,0,1,0-.53,4.19,4.19,0,0,1,2.08-2.87l.24-.14a3.25,3.25,0,0,1,2,1.34,3.86,3.86,0,0,1,.48,1.33,1.6,1.6,0,0,1,0,.23C204.43,255.23,204.46,255.59,204.49,255.94Z" transform="translate(0 0.1)"/><path class="cls-25" d="M214.72,254.89a4.27,4.27,0,0,1-3,.74,27.15,27.15,0,0,0-3-.19c-.63,0-1.25.18-1.88.27a20.24,20.24,0,0,1-2.37.23,20.84,20.84,0,0,1-5-.41,3.09,3.09,0,0,1,0-.53,15.66,15.66,0,0,0,4.27,0l.6-.08c1.69-.23,3.37-.55,5.08-.62s3.92.55,5.37-.57A5.92,5.92,0,0,1,214.72,254.89Z" transform="translate(0 0.1)"/><path class="cls-43" d="M214.43,247.07l-.86,0c-1.68.06-5.34.17-6.42.05-.21,0-.32-.06-.3-.1-10-24.78-30.4-63.92-31.42-67.17h27.34a106.93,106.93,0,0,1,3.47,11.62,108.86,108.86,0,0,1,2.95,20.78c.1,2.32.16,4.74,1.37,6.75.62,1,1.53,1.91,2.2,2.92,1.4,2.14,1.67,4.75,1.82,7.26A128.26,128.26,0,0,1,214.43,247.07Z" transform="translate(0 0.1)"/><path class="cls-49" d="M206.24,191.5a27.53,27.53,0,0,1-8.11,1c-4.28-.17-8.42-1.65-12.36-3.4l-1.1-.49q-1.41-4.2-2.71-8.41l20.81-.35A106.93,106.93,0,0,1,206.24,191.5Z" transform="translate(0 0.1)"/><path class="cls-50" d="M165.8,190.17c2.63,1.56,5.29,3.07,8,4.57l1.47.81a32.82,32.82,0,0,0,3.71,1.73c7.44,2.81,19.73,1.65,30.7-2.32a247.33,247.33,0,0,0-3.85-24.86,65.09,65.09,0,0,0-3.25-11.38,13.39,13.39,0,0,0-7-7.5c-4.25-1.81-7.9-1.16-12.57-.24-.75.15-5.54,1-10.41,19.12C170.47,177.92,169.84,183.4,165.8,190.17Z" transform="translate(0 0.1)"/><path class="cls-30" d="M175.24,195.55a32.82,32.82,0,0,0,3.71,1.73c7.44,2.81,19.73,1.65,30.7-2.32a247.33,247.33,0,0,0-3.85-24.86,84.84,84.84,0,0,1-14.54,18.29,27.34,27.34,0,0,1-8.17,5.81A19.94,19.94,0,0,1,175.24,195.55Z" transform="translate(0 0.1)"/><path class="cls-29" d="M192.85,151.06c-1.53,1.8-4.77,2.73-7.43,2.83-4.43.16-3.48-1.66-3.48-1.66a27.9,27.9,0,0,0,.65-2.74,16.21,16.21,0,0,0,.28-5.18l8.09-1.5.94-.18a13.66,13.66,0,0,0-.75,4.06A7.54,7.54,0,0,0,192.85,151.06Z" transform="translate(0 0.1)"/><path class="cls-31" d="M191,142.81a4.13,4.13,0,0,1-.52,1.32c-1,1.72-3.53,5.68-7.85,5.36a16.21,16.21,0,0,0,.28-5.18Z" transform="translate(0 0.1)"/><path class="cls-29" d="M196.45,139.33c-.86,1-1.95,1.76-2.86,2.7-5.44,5.61-12.85,5.69-16.58,3.78-3.3-1.69-3.18-5.66-2.82-8.77a30.1,30.1,0,0,1,2.8-10h0a11.71,11.71,0,0,1,12.6-6.67,11.84,11.84,0,0,1,9.31,8.35,11,11,0,0,1-2.47,10.61Z" transform="translate(0 0.1)"/><circle class="cls-29" cx="194.05" cy="141" r="3"/><path class="cls-51" d="M193.62,141.7l-.15-.16a2.64,2.64,0,0,1,2.91-.42l-.1.2A2.37,2.37,0,0,0,193.62,141.7Z" transform="translate(0 0.1)"/><path class="cls-51" d="M195.13,142.4a1.61,1.61,0,0,0-1.16-1l0-.21a1.83,1.83,0,0,1,1.33,1.16Z" transform="translate(0 0.1)"/><path class="cls-19" d="M195.74,137.42l.09,0v0A.14.14,0,0,1,195.74,137.42Z" transform="translate(0 0.1)"/><path class="cls-11" d="M188.89,132.74a1,1,0,0,0,.51.26.59.59,0,0,0,.54-.16.8.8,0,0,0,0-.82,2.78,2.78,0,0,0-2.18-1.64c-.19,0-.89-.12-.92.41C186.82,131.69,187.53,131.37,188.89,132.74Z" transform="translate(0 0.1)"/><path class="cls-11" d="M179.8,127.81a1,1,0,0,1-.54-.21.6.6,0,0,1-.25-.5c0-.29.33-.48.6-.57a2.77,2.77,0,0,1,2.68.51c.14.12.68.57.31.95C182,128.63,181.73,127.89,179.8,127.81Z" transform="translate(0 0.1)"/><path class="cls-19" d="M183,139a8.64,8.64,0,0,1-.86,1,5.33,5.33,0,0,1-1.43,1A3,3,0,0,1,178,141a2.23,2.23,0,0,1-.62-.52,3.32,3.32,0,0,1-.69-1.54,8.87,8.87,0,0,1,.06-2.52l.26.13c1.75.83,3.52,1.62,5.34,2.3Z" transform="translate(0 0.1)"/><path class="cls-34" d="M182.1,140.05a5.33,5.33,0,0,1-1.43,1A3,3,0,0,1,178,141a2.23,2.23,0,0,1-.62-.52,2.08,2.08,0,0,1,.43-.34,4.24,4.24,0,0,1,2.49-.74A3,3,0,0,1,182.1,140.05Z" transform="translate(0 0.1)"/><path class="cls-35" d="M182.34,138.8a1.08,1.08,0,0,1-.64.29,2.86,2.86,0,0,1-.42,0,10.57,10.57,0,0,1-3.56-1.41,1.82,1.82,0,0,1-.45-.38,1.38,1.38,0,0,1-.27-.77C178.75,137.33,180.52,138.12,182.34,138.8Z" transform="translate(0 0.1)"/><path class="cls-51" d="M178.73,142.61a2.54,2.54,0,0,1-1.86-.82l.17-.14a2.37,2.37,0,0,0,1.69.75Z" transform="translate(0 0.1)"/><path class="cls-19" d="M178.24,132.13a.56.56,0,0,0,.48.5.68.68,0,0,0,.53-.17,1.11,1.11,0,0,0,.27-.45,1,1,0,0,0,0-.81.56.56,0,0,0-.41-.28.71.71,0,0,0-.5.21A1.17,1.17,0,0,0,178.24,132.13Z" transform="translate(0 0.1)"/><path class="cls-19" d="M184.94,135a.57.57,0,0,0,.48.5.65.65,0,0,0,.53-.18,1,1,0,0,0,.27-.44,1,1,0,0,0,0-.81.56.56,0,0,0-.41-.28.64.64,0,0,0-.5.21A1.15,1.15,0,0,0,184.94,135Z" transform="translate(0 0.1)"/><path class="cls-51" d="M179.93,136.77a1.7,1.7,0,0,1-1.39-.71,1.68,1.68,0,0,1,0-1.94,1,1,0,0,1,.51-.4,1.24,1.24,0,0,1,1,.27.33.33,0,0,0,.16.09h0a.38.38,0,0,0,.16-.11,13,13,0,0,0,2.55-3.55l.19.1a12.94,12.94,0,0,1-2.59,3.6.41.41,0,0,1-.31.17h0a.54.54,0,0,1-.29-.12,1,1,0,0,0-.85-.24.85.85,0,0,0-.41.32,1.47,1.47,0,0,0,0,1.69,1.5,1.5,0,0,0,1.59.57l.06.2A1.3,1.3,0,0,1,179.93,136.77Z" transform="translate(0 0.1)"/><path class="cls-10" d="M178.38,133.7a3.68,3.68,0,0,1-.58,0,3.29,3.29,0,0,1-2.68-3.83h0a3.3,3.3,0,0,1,6.5,1.15,3.25,3.25,0,0,1-1.36,2.13A3.28,3.28,0,0,1,178.38,133.7Zm-2.73-3.78a2.76,2.76,0,1,0,5.44,1,2.76,2.76,0,0,0-5.44-1Z" transform="translate(0 0.1)"/><path class="cls-10" d="M186,137.61a3.66,3.66,0,0,1-.57-.05,3.32,3.32,0,0,1-2.69-3.83h0a3.33,3.33,0,0,1,3.83-2.68,3.31,3.31,0,0,1,2.68,3.83A3.31,3.31,0,0,1,186,137.61Zm-2.72-3.79a2.77,2.77,0,0,0,2.24,3.2,2.76,2.76,0,0,0,3.19-2.24,2.76,2.76,0,0,0-5.43-1Z" transform="translate(0 0.1)"/><path class="cls-10" d="M182.73,133.7a1.51,1.51,0,0,0-.57-1.13,1.54,1.54,0,0,0-1.23-.28l-.12-.53a2.1,2.1,0,0,1,1.68.38,2.07,2.07,0,0,1,.79,1.54Z" transform="translate(0 0.1)"/><path class="cls-50" d="M198.84,128.31a8.76,8.76,0,0,1,.5,5.82,12.15,12.15,0,0,1-2.81,5.16,3,3,0,0,0-4.89.82c-.53-.77-1.42-2.31-1.32-3.24a4,4,0,0,1,1.19-2.46c.28-.27.59-.5.85-.79a3.71,3.71,0,0,0,.74-2.31c0-.19,0-.44-.22-.49C193.57,128.8,197.67,128,198.84,128.31Z" transform="translate(0 0.1)"/><path class="cls-11" d="M198.82,128.33c3-6-1.42-10.05-5.27-10.38a14.78,14.78,0,0,1-5.58-1.37,8.18,8.18,0,0,1-2.55-2.27c-.19-.23-.42-.49-.69-.42a.85.85,0,0,0-.44.42,4.77,4.77,0,0,0-.69,2.67c-1.31-.92-2.82-1.7-4.37-1.32-1.15.28-2.16,1.17-3.29,1.59a4.14,4.14,0,0,1-3,0,5.66,5.66,0,0,0,1.4,6.2,7.48,7.48,0,0,0,5.59,1.5c2-.13,4-.63,5.93-.63a2.19,2.19,0,0,1,1.53.43,1.35,1.35,0,0,1,.2,1.69c-.31.39-.88.51-1,1s.47.92,1,1a5,5,0,0,0,2.51-.48,4.29,4.29,0,0,1,1.71-.65c1.24,0,1.48,2.2,1,3.27A8.76,8.76,0,0,1,198.82,128.33Z" transform="translate(0 0.1)"/><path class="cls-29" d="M194.06,154.77a6.83,6.83,0,0,0-5.8-1,24.71,24.71,0,0,0-5.61,2.38A67.3,67.3,0,0,1,176.2,159a68.24,68.24,0,0,1-31.29,4.21,3.75,3.75,0,0,1-1-.92,7.07,7.07,0,0,0-4.53-2.27.54.54,0,0,0-.43.07.44.44,0,0,0,0,.62,1.58,1.58,0,0,0,.6.36,3.46,3.46,0,0,1,1.59,1.53c-1.52-.17-2.72-1.05-4-1.57a.72.72,0,0,0-.71,0,.51.51,0,0,0-.12.59,1.46,1.46,0,0,0,.42.5,12.89,12.89,0,0,0,2.89,1.9c-1.79-.17-3.38-.39-5-.62a.74.74,0,0,0-.55.06.52.52,0,0,0,0,.75,1.54,1.54,0,0,0,.76.33c-.38,0-.89,0-1,.38s.27.67.6.85a12.59,12.59,0,0,0,4.08,1.4,10,10,0,0,1-3.14.14c-.31,0-.72,0-.84.25s.32.66.71.77a25.82,25.82,0,0,0,8.44.81,76.43,76.43,0,0,0,29.43,2.8c1.39-.14,2.77-.32,4.15-.57a32.3,32.3,0,0,0,7.85-2.34,19,19,0,0,0,9.09-8.09C195.17,159.1,195.69,156.73,194.06,154.77Zm-53.54,9.3h0s0,0,0,0Z" transform="translate(0 0.1)"/><path class="cls-4" d="M185.12,169a32.41,32.41,0,0,1-7.85,2.33,22.06,22.06,0,0,1-1.46-8.51,25.89,25.89,0,0,1,.39-3.84,67.3,67.3,0,0,0,6.45-2.86,24.63,24.63,0,0,1,5.6-2.38,6.81,6.81,0,0,1,5.8,1c1.64,1.95,1.12,4.33.16,6.14A19.08,19.08,0,0,1,185.12,169Z" transform="translate(0 0.1)"/><path class="cls-52" d="M181.9,174.45c6-2.81,12-6,16.38-10.94a13.52,13.52,0,0,0,2.92-4.83,5.48,5.48,0,0,0-.67-5c-1.6-2-4.74-2.14-7.54-1.83-5.66.63-11.3,2.58-17,2.86A24.7,24.7,0,0,0,181.9,174.45Z" transform="translate(0 0.1)"/></g></g></g></svg>