<svg xmlns="http://www.w3.org/2000/svg" viewBox="0 0 257.7 338.43"><defs><style>.cls-1{isolation:isolate;}.cls-2{fill:#f3f3f3;}.cls-3{fill:#995c46;}.cls-4{fill:#2e1c16;}.cls-5{fill:#f75755;}.cls-6{fill:#e3d8cf;}.cls-7{fill:#f2ede9;}.cls-11,.cls-13,.cls-21,.cls-26,.cls-28,.cls-32,.cls-8{fill:#e0aedb;mix-blend-mode:multiply;}.cls-8{opacity:0.13;}.cls-9{fill:#f2e8e0;}.cls-10{opacity:0.61;}.cls-11{opacity:0.28;}.cls-12{fill:#fc59da;}.cls-13{opacity:0.14;}.cls-14{fill:#ff9e6a;}.cls-15{fill:#f5d556;}.cls-16{fill:#0fae86;}.cls-17{fill:#04a1f0;}.cls-18{fill:#bd73bf;}.cls-19{fill:#a6644c;}.cls-20{fill:#4f261d;}.cls-21{opacity:0.48;}.cls-22{fill:#f76b6e;}.cls-23{fill:#f2f0ed;}.cls-24{fill:#a85e43;}.cls-25{fill:#4c2518;}.cls-26{opacity:0.11;}.cls-27{fill:#b3694f;}.cls-28{opacity:0.33;}.cls-29{fill:#353475;}.cls-30{fill:#3c3b87;}.cls-31{fill:#5b5aa3;}.cls-32{opacity:0.38;}.cls-33{fill:#f78583;}.cls-34{fill:#fcd660;}</style></defs><title>Asset 2</title><g class="cls-1"><g id="Layer_2" data-name="Layer 2"><g id="OBJECTS"><ellipse class="cls-2" cx="113.98" cy="319.72" rx="113.98" ry="18.71"/><path class="cls-3" d="M88.64,135.89a9.11,9.11,0,0,1,7.75,1.42,32.09,32.09,0,0,1,5.94,5.59,93.69,93.69,0,0,0,6.78,6.59,91.3,91.3,0,0,0,37.34,19.82,5.11,5.11,0,0,0,1.68-.69,9.52,9.52,0,0,1,6.75-.75.78.78,0,0,1,.5.29c.17.26,0,.63-.3.78a2.16,2.16,0,0,1-.92.17,4.63,4.63,0,0,0-2.71,1.18c2,.5,3.9,0,5.79-.1a1,1,0,0,1,.9.31.69.69,0,0,1-.12.8,2,2,0,0,1-.76.43,17.92,17.92,0,0,1-4.51,1c2.32.61,4.43,1.08,6.55,1.53a1.08,1.08,0,0,1,.67.34.7.7,0,0,1-.37.93,2,2,0,0,1-1.12.06c.5.14,1.13.42,1.09,1s-.64.72-1.14.8a16.94,16.94,0,0,1-5.77-.15,13.24,13.24,0,0,0,3.87,1.64c.41.09.92.29.95.71s-.72.68-1.25.63a34.91,34.91,0,0,1-11-2.9A102.27,102.27,0,0,1,107,167.15c-1.67-.82-3.33-1.69-4.94-2.65a42.55,42.55,0,0,1-8.78-6.57,25.5,25.5,0,0,1-7.66-14.39C85.22,140.81,85.68,137.59,88.64,135.89Zm62.93,36.56,0,0h0Z"/><path class="cls-4" d="M85.8,100.18c-2.65-1.05-9.34-2.32-14.07,4.82-2.49,3.75-1,9-2.82,13.09-1.41,3.2-4.63,5.45-5.61,8.82C62,131.31,65,135.82,65,140.4c0,4-2.21,7.79-2.19,11.81a10.94,10.94,0,0,0,7.9,10.18c1.31.34,2.68.44,4,.86,2.49.83,4.4,2.79,6.49,4.36a16,16,0,0,0,6.76,3.14,9.61,9.61,0,0,0,7.19-1.46c2.54-1.83,3.76-5,6-7.2,2.8-2.83,6.94-4,9.79-6.73a11.74,11.74,0,0,0,2.47-13c-1.57-3.42-4.76-6-6-9.53-1.11-3.31-.57-7,.26-10.34,2.55-10.39-4.53-9.07-6.35-15.08C100.26,104,94.84,96.61,85.8,100.18Z"/><path class="cls-5" d="M97.57,303.94a17.51,17.51,0,0,1,.3,6.95,37.34,37.34,0,0,0-.64,3.88,20.11,20.11,0,0,0,.79,5.61,6.55,6.55,0,0,0,3.67.19l.13-1.92c.53,1.67,2.71,2,4.46,2,3.33,0,8.93-.27,12.25-.62a2.7,2.7,0,0,0-1.39-3.4c-1.46-.86-8.44-1.24-9.19-2.76a4.24,4.24,0,0,1-.16-2.45l1.17-8.7C104.42,303.08,101.61,303.63,97.57,303.94Z"/><path class="cls-6" d="M117.37,307.26c-3.09,1.75-8.1,4.23-11.4,4.52a15.13,15.13,0,0,1-3.3-.13,5,5,0,0,1-.54-.07A73.22,73.22,0,0,1,93,309q.25-12.06.5-24.13c0-.21,0-.41,0-.62.22-10.28,1-20.78-.09-30.89-.13-1.31-.29-2.61-.5-3.9-.13-.91-.29-1.81-.46-2.7,0-.28-.11-.56-.16-.87-.41-2-.94-4.58-1.5-7.73,0,0,0,0,0-.06-.31-1.72-.62-3.61-.92-5.7-.74-5.07-1.43-11.27-1.81-18.78q-.24-4.38-.3-9.39c-.07-4.39,0-9.15.14-14.31l10.13,3.21.57.16,11.24,3.56h0c0,.39,0,.77,0,1.15.3,23.31,3.72,38.85,4.44,55.44C114.68,260.91,116,293.52,117.37,307.26Z"/><path class="cls-7" d="M102.67,311.65a3.19,3.19,0,0,1-.54-.07c.12-4.06.27-8.12.4-12.17.17-5.06.17-10.11.16-15.16,0-9,.43-18,.17-26.92q-.19-6.67-.94-13.27c-.49-4.3-1.13-8.55-1.77-12.82s-1.26-8.47-1.67-12.76-.6-8.39-.65-12.6,0-8.53.25-12.79l.55.17c-.25,5.2-.34,10.4-.19,15.59.13,4.36.45,8.7,1,13s1.21,8.63,1.84,12.95,1.21,8.52,1.6,12.84.57,8.68.62,13,0,8.83-.13,13.25-.1,9-.09,13.46C103.3,295.45,103,303.55,102.67,311.65Z"/><path class="cls-5" d="M71.41,296.82a17.34,17.34,0,0,1-5.21,4.62,37.05,37.05,0,0,0-3.41,1.95,20.14,20.14,0,0,0-3.85,4.16,6.73,6.73,0,0,0,2.17,3l1.58-1.11c-1,1.46.15,3.37,1.25,4.73,2.11,2.58,5.85,6.76,8.21,9.11,1.47-.76,2-1.59,1.76-3.23s-4.36-7.33-3.66-8.87a4.22,4.22,0,0,1,1.8-1.67l7.49-4.59C76.4,301.59,74.21,299.76,71.41,296.82Z"/><path class="cls-8" d="M95.24,249.14a56.46,56.46,0,0,1-2.8,7.09c-.51,1.1-1,2.22-1.63,3.38l0,.07c-1.65,3.25-3.55,6.7-5.55,10.4l0,.06c-2.2,4-4.53,8.33-6.83,13a2.8,2.8,0,0,0-.15.3c-2.14,4.35-4.28,9-6.21,14q-1.83,4.62-3.41,9.65l-.39-.44A24.65,24.65,0,0,1,65.13,302a27.57,27.57,0,0,1-1.69-3.84q8.32-18.87,17.76-36.83c1-1.8,1.66-3.79,2.52-5.67a.91.91,0,0,1,.07-.14c2.54-5.35-2.25-17.18-5.19-27.23-2.22-7.61-4-15.9-2.57-24,.09-.52.2-1.06.32-1.57.29-1.33.66-2.65,1.08-3.94.33-1.08.71-2.14,1.09-3.18,1.19-3.19,2.53-6.28,4-9.24l1.33,6.53.66,3.26,1.18,5.77.94,4.69,2,9.71Z"/><path class="cls-9" d="M111.52,197.11c0,.18-.07.36-.1.55-.14.83-.29,1.75-.43,2.71-.07.43-.14.85-.21,1.3-2.29,14.46-5.82,40.36-8.52,57-.2,1.29-.41,2.52-.6,3.69a2.8,2.8,0,0,0-.06.28,40.15,40.15,0,0,1-3.42,10l-6.83,15.09c-3.42,7.5-6.69,14.76-10.26,23.06a16.14,16.14,0,0,1-9.15-1.25,10.94,10.94,0,0,1-3.17-2.25h0l0,0-.08-.08-.07-.06v0l-.39-.44c-.9-1.06-2.16-2.49-3.59-4.34a62.44,62.44,0,0,1-5.67-8.65c5.47-12.39,23-34.75,24.78-38a.91.91,0,0,1,.07-.14c2.54-5.35-2.25-17.18-5.19-27.23-2.22-7.61-4-15.9-2.57-24,.09-.52.2-1.06.32-1.57.29-1.33.66-2.65,1.08-3.94.33-1.08.71-2.14,1.09-3.18,1.19-3.19,2.53-6.28,4-9.24l1.53.56.63.24,12.59,4.67Z"/><g class="cls-10"><path class="cls-6" d="M92.15,252.12a.27.27,0,0,1-.06.19c-.12.27-.49.17-.47-.23a31.17,31.17,0,0,0,0-3.35,50.34,50.34,0,0,0-1.21-7.79s0,0,0-.06c-.43-1.9-.89-3.76-1.33-5.61-1.18-5.14-2.45-10.23-3.25-15.54-.67-4.51-1.21-9.08-1.53-13.68,0-.42-.07-.86-.09-1.28-.08-1.1-.14-2.2-.19-3.31q-.21-4.28-.17-8.58c0-2,.08-4,.2-6l.63.24c-.07,1.54-.13,3.09-.15,4.63s0,2.92,0,4.36c0,1.84.06,3.67.15,5.51.06,1.52.16,3,.27,4.57a153.72,153.72,0,0,0,2,15.95c.77,4.39,1.81,8.68,2.8,13,.2.81.39,1.64.58,2.44C91.35,242.29,92.54,247,92.15,252.12Z"/><path class="cls-6" d="M68.77,307.28a105.91,105.91,0,0,1,7.6-18.62c3.65-7.32,7.61-14.35,11.2-21.73.89-1.83,1.77-3.66,2.56-5.57a18.64,18.64,0,0,0,1.59-5.68c0-.49-.53-.53-.57,0a17.54,17.54,0,0,1-1.59,5.48c-.72,1.66-1.52,3.26-2.29,4.87-1.8,3.69-3.69,7.29-5.6,10.89a233.84,233.84,0,0,0-10.45,21.17,79.89,79.89,0,0,0-3,8.59Z"/></g><path class="cls-11" d="M111.52,197.11c0,.18-.07.36-.1.55a34.11,34.11,0,0,1-11.13,4.49l-.59.1a33.56,33.56,0,0,1-6.24.59,32,32,0,0,1-4.26-.28c-.7-.09-1.42-.21-2.12-.35-.48-.08-.94-.18-1.41-.3l-.37-.09-.66-.17-.64-.19a32.41,32.41,0,0,1-6.57-2.69c.33-1.08.71-2.14,1.09-3.18,1.19-3.19,2.53-6.28,4-9.24l1.53.56.63.24,12.59,4.67Z"/><path class="cls-12" d="M73.15,160.15v0c1.89,8.35,5.26,11.59,6.41,16.67-.72,5.07-6.12,12.05-7,17.12,12.72,8.38,22.33,10,31.65,7a25.9,25.9,0,0,0,11-6.63,21,21,0,0,0,3.25-4.44c-2-5.21-4.85-13.73-7.25-19.86-.76-2-1.48-3.88-2.12-5.74.55-4.85.24-10.6-.95-12.79a10.16,10.16,0,0,0-2-2.49,33.49,33.49,0,0,0-6.83-5.17,9.3,9.3,0,0,1-2-1.42,12,12,0,0,1-2.34-4.86c-1.42.17-18.11-.68-20.14-.74A53.17,53.17,0,0,0,73.15,160.15Z"/><path class="cls-13" d="M79.56,176.85c-.72,5.07-6.12,12.05-7,17.12,12.72,8.38,22.33,10,31.65,7a25.9,25.9,0,0,0,11-6.63,29.89,29.89,0,0,1-7.94,1.84c-8.69.33-16.35-9.62-22.49-17.88a157.6,157.6,0,0,1-11.64-18.13v0C73.83,166.24,78.51,172.21,79.56,176.85Z"/><path class="cls-5" d="M24.81,53.54c-.61-1.35-1.22-2.66-1.82-4,14.28-11.32,28.56-9.07,42.84-14.89.6,1.52,1.21,3,1.82,4.54C53.37,45.77,39.09,43.33,24.81,53.54Z"/><path class="cls-14" d="M26.63,57.63c-.61-1.39-1.21-2.75-1.82-4.09,14.28-10.21,28.56-7.77,42.84-14.31.61,1.49,1.21,3,1.82,4.44C55.19,51,40.91,48.46,26.63,57.63Z"/><path class="cls-15" d="M28.43,61.79c-.61-1.43-1.22-2.83-1.82-4.22,14.28-9.18,28.56-6.62,42.84-14,.6,1.46,1.21,2.91,1.82,4.33C57,56.16,42.71,53.57,28.43,61.79Z"/><path class="cls-16" d="M30.25,66.13c-.61-1.47-1.21-2.91-1.82-4.34C42.71,53.57,57,56.16,71.27,47.94c.61,1.43,1.21,2.84,1.82,4.22C58.81,61.34,44.53,58.78,30.25,66.13Z"/><path class="cls-17" d="M32.06,70.53q-.92-2.25-1.82-4.44c14.28-7.35,28.56-4.79,42.84-14,.6,1.38,1.21,2.75,1.82,4.09C60.62,66.43,46.34,64,32.06,70.53Z"/><path class="cls-18" d="M33.88,75.07c-.61-1.53-1.21-3-1.82-4.54C46.34,64,60.62,66.43,74.9,56.22c.61,1.34,1.21,2.66,1.82,4C62.44,71.5,48.16,69.25,33.88,75.07Z"/><rect class="cls-4" x="30.22" y="46.88" width="1.16" height="42.03" transform="translate(-22.64 15.91) rotate(-21.39)"/><path class="cls-19" d="M80.45,165.81c-5.15,0-5.14-8.85-7.23-11.62-8.69-8-17.31-12.42-21.09-18.05-.87-1.27-8.45-20.91-10.89-38.12a15.45,15.45,0,0,1-2-.31,7.43,7.43,0,0,1-4-2.09,7.63,7.63,0,0,1-1.56-4.52,6.56,6.56,0,0,1,.22-2.65,3.3,3.3,0,0,1,1.92-2,6,6,0,0,1,3.2.3,2.82,2.82,0,0,1,2.37-.55,7.38,7.38,0,0,1,4.44,3.09c.61,1.13,1.9,2.22,2.87,7.52,1.84,8.4,6.85,18.89,11.83,26.2,3.56,3.89,8.39,8.36,11.72,11.36,1,.91,7.47,5.7,9.82,9.35C85.91,149.65,86.28,165.81,80.45,165.81Z"/><path class="cls-20" d="M38.83,93.23a1.43,1.43,0,0,1-.74-.19.87.87,0,0,1-.42-.55,1.58,1.58,0,0,1,.14-.8,9.41,9.41,0,0,0,.65-2.52c0-.16,0-.32,0-.49a3.36,3.36,0,0,1,.41-1.78,2.31,2.31,0,0,1,2.38-.85l-.06.21a2.08,2.08,0,0,0-2.14.77,3,3,0,0,0-.37,1.66c0,.17,0,.33,0,.5A9.87,9.87,0,0,1,38,91.77a1.28,1.28,0,0,0-.12.68.62.62,0,0,0,.31.4,1.3,1.3,0,0,0,1,.12,2.41,2.41,0,0,0,1.26-1.06,6,6,0,0,0,1-2.75l.22,0A6.24,6.24,0,0,1,40.63,92a2.62,2.62,0,0,1-1.38,1.13A1.42,1.42,0,0,1,38.83,93.23Z"/><path class="cls-20" d="M41.73,94.18A2.74,2.74,0,0,1,40.44,92h.22a2.51,2.51,0,0,0,1.19,2Z"/><path class="cls-20" d="M33.68,90.71l-.21-.06a2.55,2.55,0,0,1,1.16-1.79,2.94,2.94,0,0,1,1.25-.21,12.93,12.93,0,0,1,2.64.28l0,.21a12.54,12.54,0,0,0-2.6-.27h0a2.71,2.71,0,0,0-1.14.19A2.35,2.35,0,0,0,33.68,90.71Z"/><path class="cls-20" d="M34.83,87.34l-.15-.17a4.21,4.21,0,0,1,1.19-.8,4.48,4.48,0,0,1,2.6.06,1.23,1.23,0,0,1,.59.25l-.15.16a1.08,1.08,0,0,0-.49-.2A4.27,4.27,0,0,0,36,86.57,3.92,3.92,0,0,0,34.83,87.34Z"/><path class="cls-20" d="M33.93,92.51h-.21a1.46,1.46,0,0,1,.61-1.16,2.72,2.72,0,0,1,1.84-.4,7.5,7.5,0,0,1,.95.14c.29,0,.58.1.87.13l0,.22c-.3,0-.6-.09-.88-.14s-.63-.11-.94-.14a2.51,2.51,0,0,0-1.69.37A1.24,1.24,0,0,0,33.93,92.51Z"/><path class="cls-20" d="M39.48,97h-.16a2.8,2.8,0,0,1-1.52-.77,6.84,6.84,0,0,1-1-1.27l.18-.12A6.12,6.12,0,0,0,38,96.05a2.51,2.51,0,0,0,1.4.71c.17,0,.39,0,.47-.11a.37.37,0,0,0,0-.24A5,5,0,0,0,39,94.52a1.85,1.85,0,0,0-.47-.58,2.1,2.1,0,0,0-.66-.25c-.45-.11-.91-.2-1.37-.27a2.83,2.83,0,0,0-1.26,0c-.35.1-.72.41-.7.76h-.22a1.09,1.09,0,0,1,.86-1,3,3,0,0,1,1.36,0c.46.07.93.16,1.38.27a2.22,2.22,0,0,1,.74.28,2.07,2.07,0,0,1,.52.64,5,5,0,0,1,.84,2,.52.52,0,0,1-.06.38A.62.62,0,0,1,39.48,97Z"/><path class="cls-20" d="M36.24,96.12l0-.21a7.9,7.9,0,0,1,1.36-.17V96A7.55,7.55,0,0,0,36.24,96.12Z"/><polygon class="cls-5" points="50.52 99.35 50.35 98.39 40.57 101.12 40.73 102.08 50.52 99.35"/><polygon class="cls-14" points="50.69 100.31 50.52 99.35 40.73 102.08 40.9 103.04 50.69 100.31"/><polygon class="cls-15" points="50.85 101.25 50.68 100.3 40.89 103.03 41.06 103.98 50.85 101.25"/><polygon class="cls-16" points="51.01 102.21 50.85 101.25 41.06 103.98 41.22 104.94 51.01 102.21"/><polygon class="cls-17" points="51.18 103.16 51.01 102.2 41.22 104.93 41.39 105.89 51.18 103.16"/><polygon class="cls-18" points="51.34 104.12 51.18 103.16 41.39 105.89 41.55 106.85 51.34 104.12"/><path class="cls-19" d="M78.78,137.5a11.68,11.68,0,0,0,7.38,3.79c4.53.3,3.75-2,3.75-2s-.35-1.66-.64-3.85a31.72,31.72,0,0,1-.23-7.27L80.8,126l-1-.26a28.13,28.13,0,0,1,.71,5.7C80.62,133.61,80.36,136,78.78,137.5Z"/><path class="cls-21" d="M80.8,126a7.33,7.33,0,0,0,.52,1.86A12.5,12.5,0,0,0,84,131.62a18,18,0,0,0,5.29,3.84,31.72,31.72,0,0,1-.23-7.27Z"/><path class="cls-19" d="M75.18,122.47a22.34,22.34,0,0,0,2.68,3.22,21.13,21.13,0,0,0,12,6.6,8.74,8.74,0,0,0,5.07-.52,6.94,6.94,0,0,0,3.37-3.9,14.26,14.26,0,0,0,.71-5,32.15,32.15,0,0,0-1.7-10.92h0a12.48,12.48,0,0,0-12.49-8.64A12.52,12.52,0,0,0,73,114.61,12,12,0,0,0,75.18,122.47Z"/><circle class="cls-19" cx="77.52" cy="124.43" r="3.19"/><path class="cls-20" d="M77.87,125.33a2.55,2.55,0,0,0-2.77-.75l-.07-.2a2.76,2.76,0,0,1,3,.81Z"/><path class="cls-20" d="M76.18,125.88l-.2-.1a2,2,0,0,1,1.55-1.06v.22A1.71,1.71,0,0,0,76.18,125.88Z"/><path class="cls-4" d="M83.87,117.41a1.11,1.11,0,0,1-.58.21.65.65,0,0,1-.55-.23.85.85,0,0,1,.08-.88,3,3,0,0,1,2.52-1.46c.19,0,1,0,.91.55C86.18,116.56,85.47,116.13,83.87,117.41Z"/><path class="cls-4" d="M94.1,113.34a1.05,1.05,0,0,0,.59-.16.63.63,0,0,0,.33-.5c0-.31-.29-.54-.57-.68a3,3,0,0,0-2.89.21c-.17.11-.8.52-.45,1C91.7,113.93,92.05,113.17,94.1,113.34Z"/><path class="cls-4" d="M85.08,121a1.53,1.53,0,0,1,0-1,1.94,1.94,0,0,1,1.59-1.13,1.64,1.64,0,0,1,1.48.72,1.94,1.94,0,0,0-1.8,0A3.24,3.24,0,0,0,85.08,121Z"/><path class="cls-4" d="M85.1,121a2.5,2.5,0,0,1-1.31-.06,2.84,2.84,0,0,0,1.43-.83C85.76,119.39,85.39,120.13,85.1,121Z"/><path class="cls-4" d="M96.18,116.86a1.49,1.49,0,0,0-.7-.71,1.93,1.93,0,0,0-1.93.32A1.69,1.69,0,0,0,93,118a1.94,1.94,0,0,1,1.3-1.25A3.23,3.23,0,0,1,96.18,116.86Z"/><path class="cls-4" d="M96.16,116.87a2.5,2.5,0,0,0,.88-1,2.88,2.88,0,0,1-1.6.43C94.58,116.22,95.36,116.48,96.16,116.87Z"/><path class="cls-4" d="M88.5,123.69a9.66,9.66,0,0,0,.78,1.18,5.71,5.71,0,0,0,1.38,1.24,3.19,3.19,0,0,0,2.85.24,2.8,2.8,0,0,0,.73-.48,3.5,3.5,0,0,0,.91-1.54,9.22,9.22,0,0,0,.26-2.67l-.29.1c-2,.66-3.92,1.27-5.93,1.76Z"/><path class="cls-22" d="M89.28,124.87a5.71,5.71,0,0,0,1.38,1.24,3.19,3.19,0,0,0,2.85.24,2.8,2.8,0,0,0,.73-.48,4,4,0,0,0-.41-.41,4.56,4.56,0,0,0-2.54-1.1A3.36,3.36,0,0,0,89.28,124.87Z"/><path class="cls-23" d="M89.19,123.52a1.13,1.13,0,0,0,.63.39,2.36,2.36,0,0,0,.46,0,10.91,10.91,0,0,0,3.93-1,2,2,0,0,0,.52-.34,1.52,1.52,0,0,0,.39-.79C93.17,122.42,91.2,123,89.19,123.52Z"/><path class="cls-20" d="M93.17,127.77H93l0-.22a1.84,1.84,0,0,0,1.49-.54l.16.15A2.09,2.09,0,0,1,93.17,127.77Z"/><path class="cls-20" d="M92.71,121.57a1.36,1.36,0,0,1-.67-.17l.11-.19a1.48,1.48,0,0,0,1.67-.32,1.55,1.55,0,0,0,.5-1,1.16,1.16,0,0,0-.46-1,2.15,2.15,0,0,0-.46-.21l-.26-.1a4.52,4.52,0,0,1-2-2.67l.2-.08a4.33,4.33,0,0,0,1.91,2.55l.25.1a2.08,2.08,0,0,1,.5.24,1.37,1.37,0,0,1,.56,1.18,1.81,1.81,0,0,1-.57,1.17A1.87,1.87,0,0,1,92.71,121.57Z"/><path class="cls-4" d="M98.55,116.81c-.5-1.68-.81-3.43-1.32-4.91-3.28.49-4.54-4.6-6.77-4,0,8.72-14.13,4.76-10.31,11a4.77,4.77,0,0,1-.36,5.5,4.76,4.76,0,0,0-1.69-1.76,3.38,3.38,0,0,0-2.22-.45,3.26,3.26,0,0,0-.67.12h-.15c-5-6.06-3.73-11.51-2.13-14.8s7-6.47,12-6.47a14.46,14.46,0,0,1,10.39,4.85A14.73,14.73,0,0,1,98.55,116.81Z"/><path class="cls-4" d="M75.21,122.34l-.09,0h.09Z"/><path class="cls-24" d="M126,146.49c-.87-1.55-1.66-3.15-2.4-4.77-5.29-11.51-6.77-23.2-7.27-35.86-.59-1.41-1.4-2.85-1.91-4.4a7.87,7.87,0,0,1-.17-4.82,9.85,9.85,0,0,1,3.41-4.35,8.07,8.07,0,0,1,2.65-1.55,3.38,3.38,0,0,1,3,.34,11.2,11.2,0,0,1,1.8,2.23c.59.72,1.42,1.28,1.74,2.16.6,1.6-.7,3.21-1.56,4.7a9.83,9.83,0,0,0-1.31,4.65c1.9,20,22.75,44.66,24.34,46.77,4,5.31,2.72,8.12,1.81,10.56a6.47,6.47,0,0,1-7.34,2.73C134.26,162.69,127.72,149.55,126,146.49Z"/><path class="cls-25" d="M124,96.18a5.18,5.18,0,0,0-1.78-.7c-1.42-.39-3-.83-2.93-2.41a.61.61,0,0,1,.21-.38c.27-.24.67-.1,1,0a8.54,8.54,0,0,0,2.08.35,7.65,7.65,0,0,1,2.27.42,4,4,0,0,1,1.81,1.46l-.18.12a3.79,3.79,0,0,0-1.71-1.38,7.5,7.5,0,0,0-2.21-.4,8.14,8.14,0,0,1-2.13-.37c-.26-.09-.57-.2-.75,0a.31.31,0,0,0-.13.23c-.1,1.39,1.36,1.79,2.77,2.18a5.41,5.41,0,0,1,1.86.74Z"/><path class="cls-25" d="M119.68,92.68a2.22,2.22,0,0,1-.13-1.16,1.25,1.25,0,0,1,1.14-.94v.22a1,1,0,0,0-.94.77,2.21,2.21,0,0,0,.12,1.05Z"/><path class="cls-25" d="M123.05,93.25a5.84,5.84,0,0,1-.38-1.6l.22,0a5.76,5.76,0,0,0,.36,1.54Z"/><path class="cls-25" d="M120.46,97.76a1.23,1.23,0,0,1-.55-.13,2.55,2.55,0,0,1-.75-.67,9.28,9.28,0,0,1-1.06-1.58,5.62,5.62,0,0,1-.72-2.19,1.44,1.44,0,0,1,.05-.61,1.5,1.5,0,0,1,.34-.47,4.49,4.49,0,0,1,2.11-1.21l.06.21a4.2,4.2,0,0,0-2,1.16,1.21,1.21,0,0,0-.28.39,1.12,1.12,0,0,0,0,.51,5.36,5.36,0,0,0,.69,2.11,9.25,9.25,0,0,0,1,1.54,2.2,2.2,0,0,0,.68.61.83.83,0,0,0,.82,0,1.06,1.06,0,0,0,.4-.81,2.83,2.83,0,0,0-.26-1.49l.2-.09a2.94,2.94,0,0,1,.27,1.6,1.25,1.25,0,0,1-.49,1A.83.83,0,0,1,120.46,97.76Z"/><path class="cls-25" d="M122.36,97.71a1.19,1.19,0,0,1-.37-.06,1.18,1.18,0,0,1-.75-.89l.21,0a1,1,0,0,0,.61.71.93.93,0,0,0,.92-.18,1.71,1.71,0,0,0,.39-1.51l.21,0a1.93,1.93,0,0,1-.45,1.71A1.2,1.2,0,0,1,122.36,97.71Z"/><path class="cls-25" d="M118.81,99.36a1.15,1.15,0,0,1-.6-.18,3,3,0,0,1-.86-.92,16.44,16.44,0,0,1-1.4-2.57,2.55,2.55,0,0,1-.28-1.09,1.92,1.92,0,0,1,.61-1.31,5.86,5.86,0,0,1,1.16-.83l.11.19a5.14,5.14,0,0,0-1.11.8,1.74,1.74,0,0,0-.56,1.16,2.53,2.53,0,0,0,.27,1,15.52,15.52,0,0,0,1.38,2.53,2.59,2.59,0,0,0,.79.86.86.86,0,0,0,.6.14.89.89,0,0,0,.65-.75,2.58,2.58,0,0,0-.13-1.13l.21-.06a2.72,2.72,0,0,1,.13,1.23,1.09,1.09,0,0,1-.83.93Z"/><path class="cls-25" d="M116.89,100.85a.84.84,0,0,1-.45-.17,6.7,6.7,0,0,1-1-.72,3.8,3.8,0,0,1,.34-5.89l.13.17a3.59,3.59,0,0,0-.32,5.56,6.49,6.49,0,0,0,1,.7c.12.08.27.17.39.13a.41.41,0,0,0,.2-.21,1.72,1.72,0,0,0-.08-1.41,10.24,10.24,0,0,1-.73-2.54h.22a9.81,9.81,0,0,0,.71,2.47,1.9,1.9,0,0,1,.08,1.59.58.58,0,0,1-.34.32Z"/><path class="cls-24" d="M137.73,176.31a101.89,101.89,0,0,0,4,23.76s33.84.24,34.09,0c-2.07-3.36-4.13-6.95-6.2-10.31a12,12,0,0,1-1.63-3.43c-.56-2.39.39-4.84,1-7.22.52-2,.82-.73.89-2.8Z"/><path class="cls-9" d="M131.39,191.52c5.83,2.24,12.57,1,18.31-1.26s11-5.61,16.74-7.81c4.06-1.54,8.42-2.53,12.14-4.67a22.19,22.19,0,0,0,2.15-1.42,48.35,48.35,0,0,0,7.46-7.4,24.54,24.54,0,0,0-6.7-3.59c-3.15-1.16-6.62-1.87-9.19-3.89-.46-3.67-1.14-7.77-2-11.86a15,15,0,0,0-1.21-4,3,3,0,0,0-1.2-1.36,4,4,0,0,0-2.26-.26,35.2,35.2,0,0,0-8.27,1.74c-3.43,1.16-9,.72-12.58.92a4.15,4.15,0,0,0-1.5.25,3.63,3.63,0,0,0-1.38,1.37c-1.63,2.33-1.55,4.61-3.17,6.94a12.39,12.39,0,0,0-1.82,3.32,10.37,10.37,0,0,0-.23,3.85c.08,1,.18,2,.3,2.93a57.4,57.4,0,0,0,1.39,7.12C136,178.77,133.7,185.14,131.39,191.52Z"/><path class="cls-26" d="M131.39,191.52c5.83,2.24,12.57,1,18.31-1.26s11-5.61,16.74-7.81c4.06-1.54,8.42-2.53,12.14-4.67a22.19,22.19,0,0,0,2.15-1.42c-10.72,6.18-31.22.9-34.85-1.18-4.72-2.7-7.59-5.75-8.85-9.87a57.4,57.4,0,0,0,1.39,7.12C136,178.77,133.7,185.14,131.39,191.52Z"/><path class="cls-27" d="M182.63,141.52c.6-1.67,1.11-3.38,1.58-5.1,3.3-12.23,2.83-24,1.22-36.57.35-1.49.91-3,1.16-4.66a7.92,7.92,0,0,0-.63-4.78,10,10,0,0,0-4.09-3.72A8.16,8.16,0,0,0,179,85.6a3.36,3.36,0,0,0-2.86.83,11.28,11.28,0,0,0-1.41,2.49,8.4,8.4,0,0,0-1.35,2.42c-.33,1.68,1.22,3,2.31,4.37a9.85,9.85,0,0,1,2.06,4.38c1.43,20-15,47.81-16.25,50.15-3.07,5.91-1.33,8.47,0,10.72a6.49,6.49,0,0,0,7.7,1.47C175.37,159.69,181.47,144.82,182.63,141.52Z"/><path class="cls-25" d="M176.32,91.57l-.17-.15a5.28,5.28,0,0,1,1.72-1c1.32-.62,2.7-1.26,2.37-2.62a.41.41,0,0,0-.17-.21c-.2-.12-.48,0-.73.17a8.26,8.26,0,0,1-2,.72,7.39,7.39,0,0,0-2.11.76,3.77,3.77,0,0,0-1.46,1.65l-.19-.09A3.9,3.9,0,0,1,175.08,89a7.62,7.62,0,0,1,2.17-.78,8.71,8.71,0,0,0,2-.7c.27-.15.63-.35.94-.16a.56.56,0,0,1,.27.34c.37,1.54-1.15,2.24-2.49,2.86A5.32,5.32,0,0,0,176.32,91.57Z"/><path class="cls-25" d="M180,87.41l-.22,0a2.12,2.12,0,0,0,0-1.06,1,1,0,0,0-1.05-.6l0-.22a1.26,1.26,0,0,1,1.28.74A2.35,2.35,0,0,1,180,87.41Z"/><path class="cls-25" d="M176.74,88.52l-.21,0a5.24,5.24,0,0,0,.1-1.58l.22,0A5.32,5.32,0,0,1,176.74,88.52Z"/><path class="cls-25" d="M179.88,92.56a1,1,0,0,1-.34-.07,1.3,1.3,0,0,1-.65-.88,3,3,0,0,1,0-1.63l.21.06a2.77,2.77,0,0,0,0,1.51,1.08,1.08,0,0,0,.53.74.86.86,0,0,0,.8-.14,2.36,2.36,0,0,0,.58-.72,9.63,9.63,0,0,0,.77-1.7,5.59,5.59,0,0,0,.33-2.18,1.09,1.09,0,0,0-.13-.5,1.26,1.26,0,0,0-.34-.35,4.29,4.29,0,0,0-2.18-.8l0-.22a4.58,4.58,0,0,1,2.29.85,1.31,1.31,0,0,1,.4.41,1.45,1.45,0,0,1,.16.59A5.7,5.7,0,0,1,182,89.8a10.05,10.05,0,0,1-.78,1.74,2.65,2.65,0,0,1-.64.78A1.13,1.13,0,0,1,179.88,92.56Z"/><path class="cls-25" d="M178,92.82a1.07,1.07,0,0,1-.6-.17,1.88,1.88,0,0,1-.73-1.6h.22a1.69,1.69,0,0,0,.62,1.43.94.94,0,0,0,1.43-.78h.21a1.15,1.15,0,0,1-.59,1A1.08,1.08,0,0,1,178,92.82Z"/><path class="cls-25" d="M181.79,93.86a1.11,1.11,0,0,1-1-.78,2.85,2.85,0,0,1-.07-1.23l.22,0A2.57,2.57,0,0,0,181,93a.88.88,0,0,0,.76.63.87.87,0,0,0,.57-.24,2.69,2.69,0,0,0,.64-1,16.62,16.62,0,0,0,.94-2.73,2.59,2.59,0,0,0,.1-1,1.81,1.81,0,0,0-.74-1,5.19,5.19,0,0,0-1.23-.6l.07-.2a5.6,5.6,0,0,1,1.28.62,2,2,0,0,1,.83,1.2,2.6,2.6,0,0,1-.1,1.11,16.18,16.18,0,0,1-1,2.77,3.07,3.07,0,0,1-.7,1A1.11,1.11,0,0,1,181.79,93.86Z"/><path class="cls-25" d="M184,95h0a.61.61,0,0,1-.39-.27,1.92,1.92,0,0,1-.19-1.57,9.69,9.69,0,0,0,.3-2.55l.22,0a10,10,0,0,1-.31,2.63,1.72,1.72,0,0,0,.16,1.39.36.36,0,0,0,.24.18.61.61,0,0,0,.36-.19,7.39,7.39,0,0,0,.82-.85,3.6,3.6,0,0,0-1.24-5.43l.1-.19a3.82,3.82,0,0,1,1.31,5.76,7.77,7.77,0,0,1-.84.87A.8.8,0,0,1,184,95Z"/><path class="cls-27" d="M257.7,223.9c-.8,2.54-4.23,1.3-5,1-3.84-1.39-9.38-1.62-12.6-1.41-.5,0-.95.07-1.32.13-11.56,6.79-23.79,19.18-36.37,28.8-2.57,2-5.85,4.06-8.83,2.79a73,73,0,0,1-9.3-5.27c-1.58-1-13.55-12.28-16-14.76-.54-.55-1.08-1.09-1.58-1.62-16.18-16.71-13.24-22.72-9.79-25.89,5.77-5.29,9.72-4.15,13.27-1.84,1.88,1.23,12.45,11,20.85,21.52l1.08,1.36c.68.86,1.34,1.74,2,2.61.31.41.6.83.9,1.24,1.14-5.53,5.57-7.18,8.64-8.23,9.76-3.31,19.61-3.78,30-7.31,0-.25,0-.51,0-.77a8.09,8.09,0,0,1,.19-1.43c0-.1.05-.19.07-.3a5.77,5.77,0,0,1,3.52-4,3.47,3.47,0,0,1,1.91-.18,5.54,5.54,0,0,1,1.7.77A95.05,95.05,0,0,1,257.7,223.9Z"/><path class="cls-12" d="M233.76,214.82a10.21,10.21,0,0,1,4.22,3.36,10,10,0,0,0,2.25,2.12,3.61,3.61,0,0,0,2.36.51,4.21,4.21,0,0,0-2.18,1.31,2.1,2.1,0,0,0-.35,1.38c3.22-.22,8.77,0,12.6,1.4.81.3,4.23,1.54,5-1A95.05,95.05,0,0,0,241,211.1a5.91,5.91,0,0,0-1.7-.77,3.47,3.47,0,0,0-1.91.18,5.75,5.75,0,0,0-3.52,4C233.8,214.63,233.78,214.72,233.76,214.82Z"/><path class="cls-28" d="M192.05,228.71a22,22,0,0,1-4.41,2.94c-4.65,2.27-10.06,2.19-15.25,2.06l-5.75-.15c-16.18-16.71-13.24-22.72-9.79-25.89,5.77-5.29,9.72-4.15,13.27-1.84,1.88,1.23,12.45,11,20.85,21.52Z"/><path class="cls-29" d="M171.55,191.48c3.7,5,6.39,10.61,9.55,16S188,218,193.33,221.13a49,49,0,0,1-5.81,8.26,16.49,16.49,0,0,1-3.8,3.42,20,20,0,0,1-5.57,2A74.4,74.4,0,0,1,166,237.15a334.05,334.05,0,0,1-27.26-38Z"/><path class="cls-24" d="M167.14,244.63c-.26,1.59-.6,3.17-1,4.71a55.27,55.27,0,0,1-2.94,8,.53.53,0,0,0-.08.17A94.13,94.13,0,0,0,158.55,269c3.47,2.18,5,6.72,5.09,11.09s-1.09,8.67-2.27,12.87c-1.42,5.09-4.55,12.27-4.55,18.87a3.25,3.25,0,0,0,.53,1.42l.06.13a10.81,10.81,0,0,1,.9,1.64,7,7,0,0,1-.36,5.51c-6.17,2.23-14.1,4.79-21,4.35-.76-3,3.51-4,4.07-4.29,2.74-1.49,5.47-5.61,6.37-8a3.8,3.8,0,0,0,.29-1.35c-1.32-21.41-7.1-50.25-8.34-70.28a68.27,68.27,0,0,1,.41-15.5c.67-3.62,4.12-6.47,7.69-7.39,9.9-2.55,16.26,4.53,18.68,11A30.16,30.16,0,0,1,167.14,244.63Z"/><path class="cls-12" d="M136.93,324.84c6.92.44,14.84-2.12,21-4.35a7.08,7.08,0,0,0,.37-5.51,11.77,11.77,0,0,0-.9-1.64,11,11,0,0,1-3.83.89c-1.68.2-3.63.74-4.41,2.16a4.1,4.1,0,0,0,.3-2.52,1.87,1.87,0,0,0-2.11-1.33c-.89,2.4-3.63,6.53-6.36,8C140.43,320.87,136.17,321.81,136.93,324.84Z"/><path class="cls-28" d="M167.14,244.63a33.89,33.89,0,0,1-13.24.31,83.4,83.4,0,0,1-14.58-4,68.27,68.27,0,0,1,.41-15.5c.67-3.62,4.12-6.47,7.69-7.39,9.9-2.55,16.26,4.53,18.68,11A30.16,30.16,0,0,1,167.14,244.63Z"/><path class="cls-30" d="M177.8,215.81c-1.07,2.64-2.56,5.11-3.47,7.82a72.93,72.93,0,0,0-2.55,13.88,142.71,142.71,0,0,1-17.28,2.81,45.26,45.26,0,0,1-17.66-2.42c-.69-9.6-.2-19,.9-30.18.14-1.49.3-3,.47-4.55l.09-.89c0-.42.09-.85.14-1.29.13-1.12.25-2.26.39-3.43l31.82-7.66a22.94,22.94,0,0,1,2.43,2.62c.19.22.37.44.54.67C179.35,200.88,179.8,210.93,177.8,215.81Z"/><path class="cls-31" d="M173.08,192.52c-7.71,1.5-15.38,3.12-23,5.16-2,.55-4,1.11-6,1.72-.92.27-1.84.54-2.74.85A15.44,15.44,0,0,1,139,201a1.12,1.12,0,0,1-.56,0,3.87,3.87,0,0,1-.91-.56,4.32,4.32,0,0,0-1.86-.69c-1.4-.23-3.27-.19-4.4.83s.23,2.35,1.39,2.66a7.15,7.15,0,0,0,4.12-.48c-.29.39-.59.78-.86,1.18a7.37,7.37,0,0,0-1.47,3.17,1.42,1.42,0,0,0,1.69,1.54,2.24,2.24,0,0,0,1.6-.92,5.42,5.42,0,0,0,.83-1.53c.48-1.34.56-2.78,1-4.12a.5.5,0,0,0,0-.27c.47-.14.93-.33,1.35-.49a110.76,110.76,0,0,1,10.73-3.14q5.55-1.44,11.15-2.69c3.6-.8,7.19-1.56,10.8-2.29C173.45,193,173.27,192.74,173.08,192.52Zm-39.83,9.9c-.45,0-1.95-.47-1.46-1.11a3.47,3.47,0,0,1,2.26-.74,6.44,6.44,0,0,1,2.18.28,4.08,4.08,0,0,1,1.18.67A9.24,9.24,0,0,1,133.25,202.42Zm5,.75c-.19.8-.34,1.6-.6,2.37a3.93,3.93,0,0,1-1,1.71c-.21.16-.86.5-1.1.23s.09-.91.18-1.13a10.72,10.72,0,0,1,1-1.73c.51-.8,1.13-1.54,1.62-2.34a1.14,1.14,0,0,0,.15-.23s0-.07,0-.1h.06A8.63,8.63,0,0,0,138.21,203.17Z"/><path class="cls-27" d="M162.91,144.55c.22,4.71-9.25,8.18-13.73,10.11-2.46-2.9-3.32-5-2.59-6s1.74-3.23,2.23-7.6c.13-1.08.22-2.3.29-3.66,2.29-.44,6.23-1.46,8.46-2.12a16.88,16.88,0,0,0,1.66-.53,1.26,1.26,0,0,0,0,1.19l.06,0a18.13,18.13,0,0,0-.19,2.21,7.34,7.34,0,0,0,1.44,5.25l0,0,.17.15A5.85,5.85,0,0,0,162.91,144.55Z"/><path class="cls-32" d="M157.57,135.26a19,19,0,0,1-3.69,4,7.68,7.68,0,0,1-3.52,1.89,3.81,3.81,0,0,1-1.54-.07c.13-1.08.22-2.3.29-3.66C151.4,136.94,155.34,135.92,157.57,135.26Z"/><path class="cls-27" d="M168.4,123c0,.32-.05.65-.09,1a12,12,0,0,1-3.82,7.07l-.09.09a18.52,18.52,0,0,1-2,1.59,4.41,4.41,0,0,1-.49.36c-.3.2-.59.4-.89.58-.51.32-1,.65-1.62,1a.27.27,0,0,1-.1.06l-.1.06c-.52.28-1.06.56-1.64.82a19.48,19.48,0,0,1-8.5,1.88c-.39,0-.8,0-1.21-.05a8.57,8.57,0,0,1-4.82-1.66,6.92,6.92,0,0,1-2.4-4.55,13.35,13.35,0,0,1,.3-4.45c0-.2.09-.41.13-.61.09-.4.19-.81.3-1.2s.18-.69.28-1,.27-.9.43-1.36.24-.73.39-1.1c.08-.22.15-.45.25-.67a26.81,26.81,0,0,1,1.1-2.46,25.3,25.3,0,0,1,1.38-2.43h0a.56.56,0,0,1,0-.08,6.22,6.22,0,0,1,.35-.54,12.47,12.47,0,0,1,13.71-5,12.66,12.66,0,0,1,8.89,9.94s0,.08,0,.12A11.46,11.46,0,0,1,168.4,123Z"/><path class="cls-33" d="M170.65,123.07a5.65,5.65,0,0,1-.91,2.55,27.48,27.48,0,0,1-5,6.2,14.54,14.54,0,0,1-1.17,1.06c-.34.29-.68.56-1,.84a26.63,26.63,0,0,1-2.35,1.63c-.33.2-.65.4-1,.58l-.06,0a1.29,1.29,0,0,1,0-1.23.61.61,0,0,1,.05-.12,3.48,3.48,0,0,1,.22-.36,4.38,4.38,0,0,1,.55-.69c.59-.63,1.32-1.29,1.27-2.15a11.47,11.47,0,0,0-.73-1.9,7.38,7.38,0,0,1-.3-.76,3.56,3.56,0,0,1,.87-3.18,12.67,12.67,0,0,1,2.61-2,27.78,27.78,0,0,0,4.49-3.29c.22-.19.43-.38.66-.6a6.25,6.25,0,0,1,1.18,1.44A3.57,3.57,0,0,1,170.65,123.07Z"/><path class="cls-5" d="M169.11,119.89c2.43-6.12-3.36-7.55-5.59-11.13a23.57,23.57,0,0,1-2.25-5,7.73,7.73,0,0,0-1-2.2,2.35,2.35,0,0,0-2.09-1,1.41,1.41,0,0,0-1.18,1.75,15.05,15.05,0,0,0-7.87-5.1c-1.61-.42-3.5-.5-4.73.61a3.67,3.67,0,0,0-1.06,3,6.65,6.65,0,0,0,1.47,3.25c-2.49-.11-4.61,2.44-4.4,4.92a5.85,5.85,0,0,0,4.88,4.94,34.41,34.41,0,0,0,3.52.14,11.35,11.35,0,0,1,9.28,6c.8,1.55,1.43,3.47,3.08,4s3.2-.41,4.52-1.39A28.14,28.14,0,0,0,169.11,119.89Z"/><path class="cls-27" d="M158.56,131.79a3.19,3.19,0,1,1,2.39,3.82A3.19,3.19,0,0,1,158.56,131.79Z"/><path class="cls-25" d="M160.77,133.59l-.18-.14a3.33,3.33,0,0,1,3.59-1.12l-.06.2A3.11,3.11,0,0,0,160.77,133.59Z"/><path class="cls-25" d="M162.89,134.17a2.1,2.1,0,0,0-1.72-1.08v-.22a2.33,2.33,0,0,1,1.91,1.19Z"/><path class="cls-4" d="M145.92,121.54a.65.65,0,0,0,.54.58.77.77,0,0,0,.6-.2,1.22,1.22,0,0,0,.32-.5,1.1,1.1,0,0,0,0-.92.63.63,0,0,0-.47-.33.74.74,0,0,0-.57.24A1.29,1.29,0,0,0,145.92,121.54Z"/><path class="cls-4" d="M153.72,126a.68.68,0,0,0,.54.58.76.76,0,0,0,.6-.2,1.22,1.22,0,0,0,.33-.51,1.1,1.1,0,0,0,0-.92.62.62,0,0,0-.47-.32.73.73,0,0,0-.56.23A1.31,1.31,0,0,0,153.72,126Z"/><path class="cls-5" d="M157.22,123.49a1.15,1.15,0,0,0,.66.1.68.68,0,0,0,.55-.35.93.93,0,0,0-.26-.93,3.25,3.25,0,0,0-3-1.08c-.21,0-1,.17-.88.78C154.55,123,155.24,122.42,157.22,123.49Z"/><path class="cls-5" d="M146.77,118a1.16,1.16,0,0,1-.42-.53.66.66,0,0,1,.05-.65.93.93,0,0,1,.93-.23,3.24,3.24,0,0,1,2.41,2.09c.07.2.36,1-.24,1.14C148.48,120.05,148.68,119.16,146.77,118Z"/><path class="cls-4" d="M150.59,129.92a10.86,10.86,0,0,1-1,1,5.53,5.53,0,0,1-1.58,1,3.16,3.16,0,0,1-2.85-.27,2.54,2.54,0,0,1-.63-.59,3.52,3.52,0,0,1-.63-1.69,9.54,9.54,0,0,1,.21-2.66l.28.15c1.8,1,3.63,1.94,5.52,2.78Z"/><path class="cls-22" d="M149.62,130.94a5.53,5.53,0,0,1-1.58,1,3.16,3.16,0,0,1-2.85-.27,2.54,2.54,0,0,1-.63-.59,2.27,2.27,0,0,1,.48-.33,4.45,4.45,0,0,1,2.69-.64A3.36,3.36,0,0,1,149.62,130.94Z"/><path class="cls-23" d="M149.94,129.63a1.09,1.09,0,0,1-.69.26,2.22,2.22,0,0,1-.45,0,11.15,11.15,0,0,1-3.69-1.73,2,2,0,0,1-.45-.42,1.45,1.45,0,0,1-.24-.84C146.22,127.84,148.05,128.79,149.94,129.63Z"/><path class="cls-25" d="M147.63,126.42a2.47,2.47,0,0,1-2-1.08,1.59,1.59,0,0,1-.14-1.3,1.21,1.21,0,0,1,.67-.77,2.1,2.1,0,0,1,.78-.13l.22,0a3.67,3.67,0,0,0,3.27-3.46h.22a3.91,3.91,0,0,1-3.47,3.68H147a2.35,2.35,0,0,0-.71.12,1,1,0,0,0-.54.64,1.37,1.37,0,0,0,.11,1.12,2.29,2.29,0,0,0,1.82,1Z"/><path class="cls-34" d="M145.88,123.78a3.83,3.83,0,0,1-.82-.1,3.44,3.44,0,0,1-2.52-4.15h0a3.43,3.43,0,0,1,4.15-2.52,3.43,3.43,0,0,1,1,6.27A3.39,3.39,0,0,1,145.88,123.78Zm-2.81-4.12a2.89,2.89,0,1,0,3.49-2.12,2.83,2.83,0,0,0-2.18.33,2.87,2.87,0,0,0-1.31,1.79Z"/><path class="cls-34" d="M153.49,128.37a3.83,3.83,0,0,1-.82-.1,3.42,3.42,0,0,1-2.51-4.15h0a3.43,3.43,0,0,1,4.15-2.52,3.44,3.44,0,0,1-.82,6.77Zm0-6.33a2.9,2.9,0,0,0-2.8,2.2h0a2.9,2.9,0,0,0,.34,2.19,2.88,2.88,0,0,0,5.27-.81,2.89,2.89,0,0,0-2.11-3.49A2.8,2.8,0,0,0,153.48,122Z"/><path class="cls-34" d="M150.74,124.1l-.54,0a1.59,1.59,0,0,0-.53-1.22,1.62,1.62,0,0,0-1.27-.38l-.07-.53a2.1,2.1,0,0,1,2.41,2.15Z"/><path class="cls-16" d="M149.15,53.06a2.57,2.57,0,0,1-.4-.06c-.23,0-.46-.11-.68-.18a6.27,6.27,0,0,1-1.32-.66A5.68,5.68,0,0,1,144.83,50c-.05-.11-.54.35-.58.39s-.46.42-.38.58a6,6,0,0,0,1.9,2.21,6.25,6.25,0,0,0,1.24.69c.23.09.46.17.7.24a2,2,0,0,0,.72.12c.25,0,.53-.36.69-.53s.48-.53.37-.59A1.28,1.28,0,0,0,149.15,53.06Z"/><path class="cls-15" d="M98.18,68.43a5.22,5.22,0,0,0-.39.43,1.34,1.34,0,0,0-.11.14l0,0,0,0h0l-.1.08h0l-.24.16a3.72,3.72,0,0,1-.49.25,4.47,4.47,0,0,1-2.29.33c-.09,0-.3.17-.35.21a3,3,0,0,0-.48.46c-.06.06-.49.55-.28.57a4.88,4.88,0,0,0,2.83-.57,6.72,6.72,0,0,0,1.42-1,9.82,9.82,0,0,0,.77-.81,4.63,4.63,0,0,0,.32-.42c.06-.09.18-.23.13-.35S98.18,68.42,98.18,68.43Z"/><path class="cls-5" d="M110.67,45.25a9.91,9.91,0,0,1-.68-1.19,9,9,0,0,1-.79-2.59c0-.22-.52.22-.58.27a5.11,5.11,0,0,0-.45.48c-.06.08-.22.25-.21.36a9.71,9.71,0,0,0,.78,2.63,9.29,9.29,0,0,0,.67,1.19,5.45,5.45,0,0,0,.88,1.1c.14.13.63-.39.71-.48a2.88,2.88,0,0,0,.39-.46c0-.05.15-.19.09-.26C111.22,45.94,110.92,45.62,110.67,45.25Z"/><path class="cls-5" d="M167.55,28.34a7.25,7.25,0,0,0-.71-1,6.49,6.49,0,0,0-1.92-1.54c-.07,0-.18.05-.22.08a2.07,2.07,0,0,0-.39.33s-.52.55-.41.61a6.35,6.35,0,0,1,1.9,1.52,6.9,6.9,0,0,1,.7,1,5.2,5.2,0,0,1,.26.53c.08.17.14.41.32.51s.39-.23.45-.29.38-.33.4-.52A2.11,2.11,0,0,0,167.55,28.34Z"/><path class="cls-17" d="M177.65,69.27a8.36,8.36,0,0,0-1.48,1.55,9.41,9.41,0,0,0-1,1.59,8.73,8.73,0,0,0-.95,3.39c0,.2.48-.22.51-.25a2.78,2.78,0,0,0,.41-.43.76.76,0,0,0,.19-.32,8.42,8.42,0,0,1,.77-3,8.27,8.27,0,0,1,.73-1.26,11.16,11.16,0,0,1,.91-1s.31-.33.26-.42S177.69,69.24,177.65,69.27Z"/><path class="cls-18" d="M73.43,24.15a7.45,7.45,0,0,0-.6-.52,10.39,10.39,0,0,0-1.39-.86,8.94,8.94,0,0,0-3-.87c-.19,0-.48.34-.58.46s-.34.39-.19.4a8.54,8.54,0,0,1,3,.9,7.76,7.76,0,0,1,1.31.82,6.61,6.61,0,0,1,.58.47,4.14,4.14,0,0,0,.65.54c.16.08.79-.57.72-.72A1.91,1.91,0,0,0,73.43,24.15Z"/><path class="cls-15" d="M124.85,3.41c-.23-.38-.48-.74-.72-1.12L122.71,0c-.07-.12-.57.36-.62.41s-.5.46-.4.61l1.39,2.24c.23.36.45.74.68,1.1l.33.53a1.17,1.17,0,0,0,.47.51c.14.06.38-.21.46-.28a3.45,3.45,0,0,0,.26-.28c0-.06.15-.17.14-.25A2.83,2.83,0,0,0,124.85,3.41Z"/><path class="cls-15" d="M200.16,30.88c.23-.38.48-.75.72-1.13l1.42-2.27c.07-.12.56.36.61.41s.51.46.41.61l-1.39,2.24-.68,1.11-.33.52c-.13.19-.26.43-.47.52s-.38-.22-.46-.29a3.45,3.45,0,0,1-.26-.28c0-.06-.15-.17-.15-.25A2.94,2.94,0,0,1,200.16,30.88Z"/><path class="cls-16" d="M19,88.89l-.5-.51-1-1-1.92-2c-.15-.14-1.18.86-1,1l1.92,2,.93,1,.5.51c.16.16.32.4.55.46s.44-.26.55-.37.41-.36.36-.55A1.31,1.31,0,0,0,19,88.89Z"/><path class="cls-17" d="M8.69,66.42a4.12,4.12,0,0,0-1.35.23,6.22,6.22,0,0,0-1.3.56,8.71,8.71,0,0,0-2.53,2.23c0,.08-.32.44,0,.33a2.25,2.25,0,0,0,.74-.67l.17-.21c-.07.08.15-.16.09-.11s0,0,.06,0h0l.11-.1,0,0A4.89,4.89,0,0,1,5.57,68a6.05,6.05,0,0,1,1-.42c.4-.11.8-.15,1.2-.22.25,0,.5-.34.66-.52S8.85,66.43,8.69,66.42Z"/><path class="cls-18" d="M209.48,65.91a8.17,8.17,0,0,1-1.1,0,9.31,9.31,0,0,1-2.15-.49,9.45,9.45,0,0,1-3.58-2.31c-.16-.17-1.35,1-1.17,1.17A9.35,9.35,0,0,0,207.15,67a5.38,5.38,0,0,0,2.26-.06,1.72,1.72,0,0,0,.64-.49s.44-.53.35-.55A3.54,3.54,0,0,0,209.48,65.91Z"/></g></g></g></svg>